M48
; DRILL file {KiCad (6.0.7)} date Fri Mar 17 03:32:03 2023
; FORMAT={-:-/ absolute / metric / decimal}
; #@! TF.CreationDate,2023-03-17T03:32:03-06:00
; #@! TF.GenerationSoftware,Kicad,Pcbnew,(6.0.7)
; #@! TF.FileFunction,Plated,1,2,PTH
FMAT,2
METRIC
; #@! TA.AperFunction,Plated,PTH,ViaDrill
T1C0.400
; #@! TA.AperFunction,Plated,PTH,ComponentDrill
T2C0.500
; #@! TA.AperFunction,Plated,PTH,ComponentDrill
T3C0.550
; #@! TA.AperFunction,Plated,PTH,ComponentDrill
T4C1.000
; #@! TA.AperFunction,Plated,PTH,ComponentDrill
T5C1.070
; #@! TA.AperFunction,Plated,PTH,ComponentDrill
T6C1.300
; #@! TA.AperFunction,Plated,PTH,ComponentDrill
T7C3.500
%
G90
G05
T1
X107.302Y-114.3
X109.728Y-87.376
X109.728Y-107.696
X110.236Y-93.218
X112.316Y-117.79
X113.538Y-107.696
X114.922Y-79.398
X116.332Y-94.488
X116.586Y-90.932
X116.634Y-83.246
X117.332Y-94.488
X117.396Y-106.868
X117.602Y-86.36
X118.11Y-97.799
X118.412Y-84.008
X118.666Y-87.884
X118.872Y-112.776
X119.38Y-95.25
X120.222Y-84.099
X121.158Y-97.536
X121.158Y-98.552
X121.174Y-84.099
X121.412Y-80.452
X121.78Y-122.174
X122.428Y-105.664
X122.73Y-87.884
X122.984Y-84.008
X123.444Y-94.742
X123.444Y-96.774
X123.698Y-86.36
X124.206Y-99.314
X124.254Y-83.246
X124.46Y-102.87
X124.714Y-90.932
X125.476Y-94.996
X127.508Y-96.52
X127.508Y-99.568
X127.622Y-80.01
X128.185Y-93.472
X128.24Y-104.12
X129.54Y-86.36
X129.54Y-112.522
X129.54Y-120.142
X130.048Y-82.296
X130.048Y-91.44
X130.048Y-104.648
X130.048Y-122.936
X130.302Y-110.49
X130.81Y-106.172
X132.08Y-88.9
X132.588Y-117.856
X132.842Y-93.472
X134.62Y-84.328
X134.62Y-106.426
X134.734Y-110.236
X135.128Y-87.376
X136.906Y-93.472
X137.528Y-107.781
X138.684Y-89.408
X139.814Y-117.348
X140.208Y-97.028
X140.208Y-98.298
X140.462Y-102.616
X140.462Y-107.188
X141.224Y-99.314
X141.272Y-109.728
X141.478Y-104.902
X143.256Y-90.17
X143.51Y-102.616
X144.005Y-98.806
X144.005Y-100.076
X145.542Y-111.76
X146.418Y-120.65
X146.558Y-115.316
X147.066Y-91.44
X147.32Y-102.362
X147.32Y-116.586
X147.828Y-94.996
X147.828Y-98.806
X148.59Y-105.664
X149.098Y-101.346
X150.368Y-93.472
X150.368Y-105.156
X150.368Y-117.856
X150.876Y-114.864
X151.384Y-113.03
X151.638Y-96.266
X151.638Y-100.076
X152.908Y-89.408
X152.908Y-102.616
X152.908Y-105.918
X152.908Y-109.22
X152.908Y-117.856
X153.924Y-124.206
X154.178Y-93.726
X154.94Y-116.84
X155.448Y-101.346
X155.448Y-105.918
X155.448Y-109.22
X156.972Y-113.03
X157.988Y-105.156
X159.258Y-93.726
X159.258Y-98.806
X159.258Y-103.886
X160.02Y-89.408
X160.068Y-118.298
X160.528Y-96.266
X160.528Y-101.346
X162.306Y-121.92
X162.56Y-111.76
X163.068Y-114.046
X165.608Y-90.17
X165.608Y-96.266
X165.722Y-120.65
X166.837Y-103.673
X166.878Y-101.092
X166.878Y-113.284
X167.754Y-97.536
X168.148Y-112.252
X169.278Y-106.68
X170.04Y-124.46
X170.688Y-109.966
X171.056Y-93.472
X172.212Y-88.9
X172.466Y-111.49
X173.482Y-115.3
X174.104Y-96.266
X175.768Y-82.296
X175.768Y-98.282
X176.136Y-109.22
X176.136Y-111.252
X177.482Y-111.427
X178.048Y-103.437
X180.2Y-124.46
X180.848Y-79.756
X181.34Y-94.488
X181.61Y-111.76
X181.61Y-116.078
X181.864Y-93.108
X181.991Y-97.012
X182.626Y-86.36
X182.626Y-110.982
X184.785Y-109.331
X187.312Y-118.11
X187.566Y-81.28
X187.96Y-95.488
X188.468Y-109.712
X188.468Y-114.792
X189.23Y-100.184
X189.823Y-99.298
X189.992Y-105.204
X190.36Y-124.46
X190.5Y-106.68
X191.122Y-87.63
X192.278Y-116.062
X192.328Y-105.225
X192.532Y-97.028
X193.548Y-79.756
X193.929Y-105.267
X194.17Y-118.618
X194.183Y-101.33
X195.415Y-103.108
X196.215Y-110.982
X199.758Y-103.632
X201.168Y-107.696
T4
X107.95Y-95.728
X107.95Y-98.268
X107.95Y-100.808
X112.522Y-95.728
X112.522Y-98.268
X112.522Y-100.808
X133.858Y-95.743
X133.858Y-98.283
X133.858Y-100.823
X137.922Y-95.743
X137.922Y-98.283
X137.922Y-100.823
T5
X129.54Y-95.758
X129.54Y-98.298
X129.54Y-100.838
X150.368Y-121.412
X152.908Y-121.412
X155.448Y-121.412
X157.988Y-121.412
T6
X198.628Y-91.012
X198.628Y-96.012
T7
X108.458Y-81.026
X108.458Y-121.666
X199.898Y-81.026
X199.898Y-121.666
T2
G00X116.896Y-79.343
M15
G01X116.896Y-78.692
M16
G05
G00X123.896Y-79.343
M15
G01X123.896Y-78.692
M16
G05
T3
G00X118.046Y-81.718
M15
G01X117.746Y-81.718
M16
G05
G00X123.046Y-81.718
M15
G01X122.746Y-81.718
M16
G05
T4
G00X187.214Y-84.836
M15
G01X189.214Y-84.836
M16
G05
G00X186.964Y-90.836
M15
G01X189.464Y-90.836
M16
G05
T0
M30
