%TF.GenerationSoftware,KiCad,Pcbnew,(6.0.7)*%
%TF.CreationDate,2023-03-17T03:31:57-06:00*%
%TF.ProjectId,Base Station,42617365-2053-4746-9174-696f6e2e6b69,1.2*%
%TF.SameCoordinates,Original*%
%TF.FileFunction,Legend,Bot*%
%TF.FilePolarity,Positive*%
%FSLAX46Y46*%
G04 Gerber Fmt 4.6, Leading zero omitted, Abs format (unit mm)*
G04 Created by KiCad (PCBNEW (6.0.7)) date 2023-03-17 03:31:57*
%MOMM*%
%LPD*%
G01*
G04 APERTURE LIST*
G04 Aperture macros list*
%AMRoundRect*
0 Rectangle with rounded corners*
0 $1 Rounding radius*
0 $2 $3 $4 $5 $6 $7 $8 $9 X,Y pos of 4 corners*
0 Add a 4 corners polygon primitive as box body*
4,1,4,$2,$3,$4,$5,$6,$7,$8,$9,$2,$3,0*
0 Add four circle primitives for the rounded corners*
1,1,$1+$1,$2,$3*
1,1,$1+$1,$4,$5*
1,1,$1+$1,$6,$7*
1,1,$1+$1,$8,$9*
0 Add four rect primitives between the rounded corners*
20,1,$1+$1,$2,$3,$4,$5,0*
20,1,$1+$1,$4,$5,$6,$7,0*
20,1,$1+$1,$6,$7,$8,$9,0*
20,1,$1+$1,$8,$9,$2,$3,0*%
G04 Aperture macros list end*
%ADD10C,0.150000*%
%ADD11C,0.120000*%
%ADD12C,0.127000*%
%ADD13C,0.100000*%
%ADD14C,0.200000*%
%ADD15C,0.010000*%
%ADD16C,7.000000*%
%ADD17O,5.000000X2.500000*%
%ADD18O,4.500000X2.250000*%
%ADD19O,0.775000X1.550000*%
%ADD20O,1.300000X0.650000*%
%ADD21R,1.605000X1.605000*%
%ADD22R,1.700000X1.700000*%
%ADD23O,1.700000X1.700000*%
%ADD24R,1.950000X1.950000*%
%ADD25C,1.950000*%
%ADD26R,0.755599X0.799998*%
%ADD27R,0.799998X0.755599*%
%ADD28R,0.558800X0.889000*%
%ADD29R,0.355600X0.508000*%
%ADD30R,1.020000X1.000000*%
%ADD31R,1.000000X1.000000*%
%ADD32RoundRect,0.150000X0.587500X0.150000X-0.587500X0.150000X-0.587500X-0.150000X0.587500X-0.150000X0*%
%ADD33R,0.890000X0.930000*%
%ADD34R,0.900000X0.650000*%
%ADD35R,1.000000X1.020000*%
%ADD36RoundRect,0.150000X-0.587500X-0.150000X0.587500X-0.150000X0.587500X0.150000X-0.587500X0.150000X0*%
%ADD37O,0.850000X0.250000*%
%ADD38R,1.650000X2.550000*%
%ADD39R,0.889000X0.558800*%
%ADD40R,1.470000X1.285000*%
%ADD41R,0.970000X0.900000*%
%ADD42R,1.905000X0.990600*%
%ADD43R,1.790700X7.493000*%
%ADD44R,1.003300X0.558800*%
%ADD45R,1.500000X0.900000*%
%ADD46R,0.900000X1.500000*%
%ADD47R,0.900000X0.900000*%
%ADD48R,0.960000X0.970000*%
G04 APERTURE END LIST*
D10*
X123126380Y-102393714D02*
X123164476Y-102431809D01*
X123278761Y-102469904D01*
X123354952Y-102469904D01*
X123469238Y-102431809D01*
X123545428Y-102355619D01*
X123583523Y-102279428D01*
X123621619Y-102127047D01*
X123621619Y-102012761D01*
X123583523Y-101860380D01*
X123545428Y-101784190D01*
X123469238Y-101708000D01*
X123354952Y-101669904D01*
X123278761Y-101669904D01*
X123164476Y-101708000D01*
X123126380Y-101746095D01*
X122516857Y-102050857D02*
X122402571Y-102088952D01*
X122364476Y-102127047D01*
X122326380Y-102203238D01*
X122326380Y-102317523D01*
X122364476Y-102393714D01*
X122402571Y-102431809D01*
X122478761Y-102469904D01*
X122783523Y-102469904D01*
X122783523Y-101669904D01*
X122516857Y-101669904D01*
X122440666Y-101708000D01*
X122402571Y-101746095D01*
X122364476Y-101822285D01*
X122364476Y-101898476D01*
X122402571Y-101974666D01*
X122440666Y-102012761D01*
X122516857Y-102050857D01*
X122783523Y-102050857D01*
X121983523Y-101669904D02*
X121983523Y-102317523D01*
X121945428Y-102393714D01*
X121907333Y-102431809D01*
X121831142Y-102469904D01*
X121678761Y-102469904D01*
X121602571Y-102431809D01*
X121564476Y-102393714D01*
X121526380Y-102317523D01*
X121526380Y-101669904D01*
X121183523Y-102431809D02*
X121069238Y-102469904D01*
X120878761Y-102469904D01*
X120802571Y-102431809D01*
X120764476Y-102393714D01*
X120726380Y-102317523D01*
X120726380Y-102241333D01*
X120764476Y-102165142D01*
X120802571Y-102127047D01*
X120878761Y-102088952D01*
X121031142Y-102050857D01*
X121107333Y-102012761D01*
X121145428Y-101974666D01*
X121183523Y-101898476D01*
X121183523Y-101822285D01*
X121145428Y-101746095D01*
X121107333Y-101708000D01*
X121031142Y-101669904D01*
X120840666Y-101669904D01*
X120726380Y-101708000D01*
X119367047Y-122653904D02*
X119633714Y-122272952D01*
X119824190Y-122653904D02*
X119824190Y-121853904D01*
X119519428Y-121853904D01*
X119443238Y-121892000D01*
X119405142Y-121930095D01*
X119367047Y-122006285D01*
X119367047Y-122120571D01*
X119405142Y-122196761D01*
X119443238Y-122234857D01*
X119519428Y-122272952D01*
X119824190Y-122272952D01*
X119024190Y-122234857D02*
X118757523Y-122234857D01*
X118643238Y-122653904D02*
X119024190Y-122653904D01*
X119024190Y-121853904D01*
X118643238Y-121853904D01*
X118414666Y-121853904D02*
X118148000Y-122653904D01*
X117881333Y-121853904D01*
X116586095Y-122653904D02*
X117043238Y-122653904D01*
X116814666Y-122653904D02*
X116814666Y-121853904D01*
X116890857Y-121968190D01*
X116967047Y-122044380D01*
X117043238Y-122082476D01*
X116243238Y-122577714D02*
X116205142Y-122615809D01*
X116243238Y-122653904D01*
X116281333Y-122615809D01*
X116243238Y-122577714D01*
X116243238Y-122653904D01*
X115900380Y-121930095D02*
X115862285Y-121892000D01*
X115786095Y-121853904D01*
X115595619Y-121853904D01*
X115519428Y-121892000D01*
X115481333Y-121930095D01*
X115443238Y-122006285D01*
X115443238Y-122082476D01*
X115481333Y-122196761D01*
X115938476Y-122653904D01*
X115443238Y-122653904D01*
X121233714Y-123218095D02*
X121195619Y-123180000D01*
X121119428Y-123141904D01*
X120928952Y-123141904D01*
X120852761Y-123180000D01*
X120814666Y-123218095D01*
X120776571Y-123294285D01*
X120776571Y-123370476D01*
X120814666Y-123484761D01*
X121271809Y-123941904D01*
X120776571Y-123941904D01*
X120281333Y-123141904D02*
X120205142Y-123141904D01*
X120128952Y-123180000D01*
X120090857Y-123218095D01*
X120052761Y-123294285D01*
X120014666Y-123446666D01*
X120014666Y-123637142D01*
X120052761Y-123789523D01*
X120090857Y-123865714D01*
X120128952Y-123903809D01*
X120205142Y-123941904D01*
X120281333Y-123941904D01*
X120357523Y-123903809D01*
X120395619Y-123865714D01*
X120433714Y-123789523D01*
X120471809Y-123637142D01*
X120471809Y-123446666D01*
X120433714Y-123294285D01*
X120395619Y-123218095D01*
X120357523Y-123180000D01*
X120281333Y-123141904D01*
X119709904Y-123218095D02*
X119671809Y-123180000D01*
X119595619Y-123141904D01*
X119405142Y-123141904D01*
X119328952Y-123180000D01*
X119290857Y-123218095D01*
X119252761Y-123294285D01*
X119252761Y-123370476D01*
X119290857Y-123484761D01*
X119748000Y-123941904D01*
X119252761Y-123941904D01*
X118986095Y-123141904D02*
X118490857Y-123141904D01*
X118757523Y-123446666D01*
X118643238Y-123446666D01*
X118567047Y-123484761D01*
X118528952Y-123522857D01*
X118490857Y-123599047D01*
X118490857Y-123789523D01*
X118528952Y-123865714D01*
X118567047Y-123903809D01*
X118643238Y-123941904D01*
X118871809Y-123941904D01*
X118948000Y-123903809D01*
X118986095Y-123865714D01*
X118148000Y-123637142D02*
X117538476Y-123637142D01*
X117005142Y-123141904D02*
X116928952Y-123141904D01*
X116852761Y-123180000D01*
X116814666Y-123218095D01*
X116776571Y-123294285D01*
X116738476Y-123446666D01*
X116738476Y-123637142D01*
X116776571Y-123789523D01*
X116814666Y-123865714D01*
X116852761Y-123903809D01*
X116928952Y-123941904D01*
X117005142Y-123941904D01*
X117081333Y-123903809D01*
X117119428Y-123865714D01*
X117157523Y-123789523D01*
X117195619Y-123637142D01*
X117195619Y-123446666D01*
X117157523Y-123294285D01*
X117119428Y-123218095D01*
X117081333Y-123180000D01*
X117005142Y-123141904D01*
X116471809Y-123141904D02*
X115976571Y-123141904D01*
X116243238Y-123446666D01*
X116128952Y-123446666D01*
X116052761Y-123484761D01*
X116014666Y-123522857D01*
X115976571Y-123599047D01*
X115976571Y-123789523D01*
X116014666Y-123865714D01*
X116052761Y-123903809D01*
X116128952Y-123941904D01*
X116357523Y-123941904D01*
X116433714Y-123903809D01*
X116471809Y-123865714D01*
X115633714Y-123637142D02*
X115024190Y-123637142D01*
X114224190Y-123941904D02*
X114681333Y-123941904D01*
X114452761Y-123941904D02*
X114452761Y-123141904D01*
X114528952Y-123256190D01*
X114605142Y-123332380D01*
X114681333Y-123370476D01*
X113957523Y-123141904D02*
X113424190Y-123141904D01*
X113767047Y-123941904D01*
X129133523Y-108312000D02*
X129209714Y-108273904D01*
X129324000Y-108273904D01*
X129438285Y-108312000D01*
X129514476Y-108388190D01*
X129552571Y-108464380D01*
X129590666Y-108616761D01*
X129590666Y-108731047D01*
X129552571Y-108883428D01*
X129514476Y-108959619D01*
X129438285Y-109035809D01*
X129324000Y-109073904D01*
X129247809Y-109073904D01*
X129133523Y-109035809D01*
X129095428Y-108997714D01*
X129095428Y-108731047D01*
X129247809Y-108731047D01*
X128752571Y-109073904D02*
X128752571Y-108273904D01*
X128295428Y-109073904D01*
X128295428Y-108273904D01*
X127914476Y-109073904D02*
X127914476Y-108273904D01*
X127724000Y-108273904D01*
X127609714Y-108312000D01*
X127533523Y-108388190D01*
X127495428Y-108464380D01*
X127457333Y-108616761D01*
X127457333Y-108731047D01*
X127495428Y-108883428D01*
X127533523Y-108959619D01*
X127609714Y-109035809D01*
X127724000Y-109073904D01*
X127914476Y-109073904D01*
X145066404Y-114748380D02*
X145066404Y-113748380D01*
X144828309Y-113748380D01*
X144685452Y-113796000D01*
X144590214Y-113891238D01*
X144542595Y-113986476D01*
X144494976Y-114176952D01*
X144494976Y-114319809D01*
X144542595Y-114510285D01*
X144590214Y-114605523D01*
X144685452Y-114700761D01*
X144828309Y-114748380D01*
X145066404Y-114748380D01*
X144066404Y-114224571D02*
X143733071Y-114224571D01*
X143590214Y-114748380D02*
X144066404Y-114748380D01*
X144066404Y-113748380D01*
X143590214Y-113748380D01*
X143209261Y-114700761D02*
X143066404Y-114748380D01*
X142828309Y-114748380D01*
X142733071Y-114700761D01*
X142685452Y-114653142D01*
X142637833Y-114557904D01*
X142637833Y-114462666D01*
X142685452Y-114367428D01*
X142733071Y-114319809D01*
X142828309Y-114272190D01*
X143018785Y-114224571D01*
X143114023Y-114176952D01*
X143161642Y-114129333D01*
X143209261Y-114034095D01*
X143209261Y-113938857D01*
X143161642Y-113843619D01*
X143114023Y-113796000D01*
X143018785Y-113748380D01*
X142780690Y-113748380D01*
X142637833Y-113796000D01*
X142209261Y-114748380D02*
X142209261Y-113748380D01*
X141209261Y-113796000D02*
X141304500Y-113748380D01*
X141447357Y-113748380D01*
X141590214Y-113796000D01*
X141685452Y-113891238D01*
X141733071Y-113986476D01*
X141780690Y-114176952D01*
X141780690Y-114319809D01*
X141733071Y-114510285D01*
X141685452Y-114605523D01*
X141590214Y-114700761D01*
X141447357Y-114748380D01*
X141352119Y-114748380D01*
X141209261Y-114700761D01*
X141161642Y-114653142D01*
X141161642Y-114319809D01*
X141352119Y-114319809D01*
X140733071Y-114748380D02*
X140733071Y-113748380D01*
X140161642Y-114748380D01*
X140161642Y-113748380D01*
X139685452Y-114224571D02*
X139352119Y-114224571D01*
X139209261Y-114748380D02*
X139685452Y-114748380D01*
X139685452Y-113748380D01*
X139209261Y-113748380D01*
X138780690Y-114748380D02*
X138780690Y-113748380D01*
X138542595Y-113748380D01*
X138399738Y-113796000D01*
X138304500Y-113891238D01*
X138256880Y-113986476D01*
X138209261Y-114176952D01*
X138209261Y-114319809D01*
X138256880Y-114510285D01*
X138304500Y-114605523D01*
X138399738Y-114700761D01*
X138542595Y-114748380D01*
X138780690Y-114748380D01*
X136685452Y-114224571D02*
X136542595Y-114272190D01*
X136494976Y-114319809D01*
X136447357Y-114415047D01*
X136447357Y-114557904D01*
X136494976Y-114653142D01*
X136542595Y-114700761D01*
X136637833Y-114748380D01*
X137018785Y-114748380D01*
X137018785Y-113748380D01*
X136685452Y-113748380D01*
X136590214Y-113796000D01*
X136542595Y-113843619D01*
X136494976Y-113938857D01*
X136494976Y-114034095D01*
X136542595Y-114129333D01*
X136590214Y-114176952D01*
X136685452Y-114224571D01*
X137018785Y-114224571D01*
X135828309Y-114272190D02*
X135828309Y-114748380D01*
X136161642Y-113748380D02*
X135828309Y-114272190D01*
X135494976Y-113748380D01*
X134399738Y-114224571D02*
X134066404Y-114224571D01*
X133923547Y-114748380D02*
X134399738Y-114748380D01*
X134399738Y-113748380D01*
X133923547Y-113748380D01*
X132923547Y-114653142D02*
X132971166Y-114700761D01*
X133114023Y-114748380D01*
X133209261Y-114748380D01*
X133352119Y-114700761D01*
X133447357Y-114605523D01*
X133494976Y-114510285D01*
X133542595Y-114319809D01*
X133542595Y-114176952D01*
X133494976Y-113986476D01*
X133447357Y-113891238D01*
X133352119Y-113796000D01*
X133209261Y-113748380D01*
X133114023Y-113748380D01*
X132971166Y-113796000D01*
X132923547Y-113843619D01*
X132494976Y-114224571D02*
X132161642Y-114224571D01*
X132018785Y-114748380D02*
X132494976Y-114748380D01*
X132494976Y-113748380D01*
X132018785Y-113748380D01*
X130399738Y-114081714D02*
X130399738Y-114748380D01*
X130637833Y-113700761D02*
X130875928Y-114415047D01*
X130256880Y-114415047D01*
X129828309Y-114748380D02*
X129637833Y-114748380D01*
X129542595Y-114700761D01*
X129494976Y-114653142D01*
X129399738Y-114510285D01*
X129352119Y-114319809D01*
X129352119Y-113938857D01*
X129399738Y-113843619D01*
X129447357Y-113796000D01*
X129542595Y-113748380D01*
X129733071Y-113748380D01*
X129828309Y-113796000D01*
X129875928Y-113843619D01*
X129923547Y-113938857D01*
X129923547Y-114176952D01*
X129875928Y-114272190D01*
X129828309Y-114319809D01*
X129733071Y-114367428D01*
X129542595Y-114367428D01*
X129447357Y-114319809D01*
X129399738Y-114272190D01*
X129352119Y-114176952D01*
X128733071Y-113748380D02*
X128637833Y-113748380D01*
X128542595Y-113796000D01*
X128494976Y-113843619D01*
X128447357Y-113938857D01*
X128399738Y-114129333D01*
X128399738Y-114367428D01*
X128447357Y-114557904D01*
X128494976Y-114653142D01*
X128542595Y-114700761D01*
X128637833Y-114748380D01*
X128733071Y-114748380D01*
X128828309Y-114700761D01*
X128875928Y-114653142D01*
X128923547Y-114557904D01*
X128971166Y-114367428D01*
X128971166Y-114129333D01*
X128923547Y-113938857D01*
X128875928Y-113843619D01*
X128828309Y-113796000D01*
X128733071Y-113748380D01*
X127256880Y-113700761D02*
X128114023Y-114986476D01*
X126494976Y-114081714D02*
X126494976Y-114748380D01*
X126733071Y-113700761D02*
X126971166Y-114415047D01*
X126352119Y-114415047D01*
X125923547Y-114748380D02*
X125733071Y-114748380D01*
X125637833Y-114700761D01*
X125590214Y-114653142D01*
X125494976Y-114510285D01*
X125447357Y-114319809D01*
X125447357Y-113938857D01*
X125494976Y-113843619D01*
X125542595Y-113796000D01*
X125637833Y-113748380D01*
X125828309Y-113748380D01*
X125923547Y-113796000D01*
X125971166Y-113843619D01*
X126018785Y-113938857D01*
X126018785Y-114176952D01*
X125971166Y-114272190D01*
X125923547Y-114319809D01*
X125828309Y-114367428D01*
X125637833Y-114367428D01*
X125542595Y-114319809D01*
X125494976Y-114272190D01*
X125447357Y-114176952D01*
X124494976Y-114748380D02*
X125066404Y-114748380D01*
X124780690Y-114748380D02*
X124780690Y-113748380D01*
X124875928Y-113891238D01*
X124971166Y-113986476D01*
X125066404Y-114034095D01*
X144494976Y-116263142D02*
X144542595Y-116310761D01*
X144685452Y-116358380D01*
X144780690Y-116358380D01*
X144923547Y-116310761D01*
X145018785Y-116215523D01*
X145066404Y-116120285D01*
X145114023Y-115929809D01*
X145114023Y-115786952D01*
X145066404Y-115596476D01*
X145018785Y-115501238D01*
X144923547Y-115406000D01*
X144780690Y-115358380D01*
X144685452Y-115358380D01*
X144542595Y-115406000D01*
X144494976Y-115453619D01*
X144114023Y-116072666D02*
X143637833Y-116072666D01*
X144209261Y-116358380D02*
X143875928Y-115358380D01*
X143542595Y-116358380D01*
X143209261Y-116358380D02*
X143209261Y-115358380D01*
X142828309Y-115358380D01*
X142733071Y-115406000D01*
X142685452Y-115453619D01*
X142637833Y-115548857D01*
X142637833Y-115691714D01*
X142685452Y-115786952D01*
X142733071Y-115834571D01*
X142828309Y-115882190D01*
X143209261Y-115882190D01*
X142256880Y-116310761D02*
X142114023Y-116358380D01*
X141875928Y-116358380D01*
X141780690Y-116310761D01*
X141733071Y-116263142D01*
X141685452Y-116167904D01*
X141685452Y-116072666D01*
X141733071Y-115977428D01*
X141780690Y-115929809D01*
X141875928Y-115882190D01*
X142066404Y-115834571D01*
X142161642Y-115786952D01*
X142209261Y-115739333D01*
X142256880Y-115644095D01*
X142256880Y-115548857D01*
X142209261Y-115453619D01*
X142161642Y-115406000D01*
X142066404Y-115358380D01*
X141828309Y-115358380D01*
X141685452Y-115406000D01*
X141399738Y-115358380D02*
X140828309Y-115358380D01*
X141114023Y-116358380D02*
X141114023Y-115358380D01*
X140304500Y-115358380D02*
X140114023Y-115358380D01*
X140018785Y-115406000D01*
X139923547Y-115501238D01*
X139875928Y-115691714D01*
X139875928Y-116025047D01*
X139923547Y-116215523D01*
X140018785Y-116310761D01*
X140114023Y-116358380D01*
X140304500Y-116358380D01*
X140399738Y-116310761D01*
X140494976Y-116215523D01*
X140542595Y-116025047D01*
X140542595Y-115691714D01*
X140494976Y-115501238D01*
X140399738Y-115406000D01*
X140304500Y-115358380D01*
X139447357Y-116358380D02*
X139447357Y-115358380D01*
X138875928Y-116358380D01*
X138875928Y-115358380D01*
X138399738Y-115834571D02*
X138066404Y-115834571D01*
X137923547Y-116358380D02*
X138399738Y-116358380D01*
X138399738Y-115358380D01*
X137923547Y-115358380D01*
X136209261Y-115406000D02*
X136304500Y-115358380D01*
X136447357Y-115358380D01*
X136590214Y-115406000D01*
X136685452Y-115501238D01*
X136733071Y-115596476D01*
X136780690Y-115786952D01*
X136780690Y-115929809D01*
X136733071Y-116120285D01*
X136685452Y-116215523D01*
X136590214Y-116310761D01*
X136447357Y-116358380D01*
X136352119Y-116358380D01*
X136209261Y-116310761D01*
X136161642Y-116263142D01*
X136161642Y-115929809D01*
X136352119Y-115929809D01*
X135161642Y-116358380D02*
X135494976Y-115882190D01*
X135733071Y-116358380D02*
X135733071Y-115358380D01*
X135352119Y-115358380D01*
X135256880Y-115406000D01*
X135209261Y-115453619D01*
X135161642Y-115548857D01*
X135161642Y-115691714D01*
X135209261Y-115786952D01*
X135256880Y-115834571D01*
X135352119Y-115882190D01*
X135733071Y-115882190D01*
X134542595Y-115358380D02*
X134352119Y-115358380D01*
X134256880Y-115406000D01*
X134161642Y-115501238D01*
X134114023Y-115691714D01*
X134114023Y-116025047D01*
X134161642Y-116215523D01*
X134256880Y-116310761D01*
X134352119Y-116358380D01*
X134542595Y-116358380D01*
X134637833Y-116310761D01*
X134733071Y-116215523D01*
X134780690Y-116025047D01*
X134780690Y-115691714D01*
X134733071Y-115501238D01*
X134637833Y-115406000D01*
X134542595Y-115358380D01*
X133685452Y-115358380D02*
X133685452Y-116167904D01*
X133637833Y-116263142D01*
X133590214Y-116310761D01*
X133494976Y-116358380D01*
X133304500Y-116358380D01*
X133209261Y-116310761D01*
X133161642Y-116263142D01*
X133114023Y-116167904D01*
X133114023Y-115358380D01*
X132637833Y-116358380D02*
X132637833Y-115358380D01*
X132256880Y-115358380D01*
X132161642Y-115406000D01*
X132114023Y-115453619D01*
X132066404Y-115548857D01*
X132066404Y-115691714D01*
X132114023Y-115786952D01*
X132161642Y-115834571D01*
X132256880Y-115882190D01*
X132637833Y-115882190D01*
X130352119Y-116358380D02*
X130923547Y-116358380D01*
X130637833Y-116358380D02*
X130637833Y-115358380D01*
X130733071Y-115501238D01*
X130828309Y-115596476D01*
X130923547Y-115644095D01*
X129494976Y-115358380D02*
X129685452Y-115358380D01*
X129780690Y-115406000D01*
X129828309Y-115453619D01*
X129923547Y-115596476D01*
X129971166Y-115786952D01*
X129971166Y-116167904D01*
X129923547Y-116263142D01*
X129875928Y-116310761D01*
X129780690Y-116358380D01*
X129590214Y-116358380D01*
X129494976Y-116310761D01*
X129447357Y-116263142D01*
X129399738Y-116167904D01*
X129399738Y-115929809D01*
X129447357Y-115834571D01*
X129494976Y-115786952D01*
X129590214Y-115739333D01*
X129780690Y-115739333D01*
X129875928Y-115786952D01*
X129923547Y-115834571D01*
X129971166Y-115929809D01*
X128971166Y-116263142D02*
X128923547Y-116310761D01*
X128971166Y-116358380D01*
X129018785Y-116310761D01*
X128971166Y-116263142D01*
X128971166Y-116358380D01*
X128971166Y-115739333D02*
X128923547Y-115786952D01*
X128971166Y-115834571D01*
X129018785Y-115786952D01*
X128971166Y-115739333D01*
X128971166Y-115834571D01*
X145066404Y-119578380D02*
X145066404Y-118578380D01*
X144828309Y-118578380D01*
X144685452Y-118626000D01*
X144590214Y-118721238D01*
X144542595Y-118816476D01*
X144494976Y-119006952D01*
X144494976Y-119149809D01*
X144542595Y-119340285D01*
X144590214Y-119435523D01*
X144685452Y-119530761D01*
X144828309Y-119578380D01*
X145066404Y-119578380D01*
X144066404Y-119054571D02*
X143733071Y-119054571D01*
X143590214Y-119578380D02*
X144066404Y-119578380D01*
X144066404Y-118578380D01*
X143590214Y-118578380D01*
X143209261Y-119530761D02*
X143066404Y-119578380D01*
X142828309Y-119578380D01*
X142733071Y-119530761D01*
X142685452Y-119483142D01*
X142637833Y-119387904D01*
X142637833Y-119292666D01*
X142685452Y-119197428D01*
X142733071Y-119149809D01*
X142828309Y-119102190D01*
X143018785Y-119054571D01*
X143114023Y-119006952D01*
X143161642Y-118959333D01*
X143209261Y-118864095D01*
X143209261Y-118768857D01*
X143161642Y-118673619D01*
X143114023Y-118626000D01*
X143018785Y-118578380D01*
X142780690Y-118578380D01*
X142637833Y-118626000D01*
X142352119Y-118578380D02*
X141780690Y-118578380D01*
X142066404Y-119578380D02*
X142066404Y-118578380D01*
X141447357Y-119578380D02*
X141447357Y-118578380D01*
X140971166Y-119578380D02*
X140971166Y-118578380D01*
X140399738Y-119578380D01*
X140399738Y-118578380D01*
X138590214Y-119483142D02*
X138637833Y-119530761D01*
X138780690Y-119578380D01*
X138875928Y-119578380D01*
X139018785Y-119530761D01*
X139114023Y-119435523D01*
X139161642Y-119340285D01*
X139209261Y-119149809D01*
X139209261Y-119006952D01*
X139161642Y-118816476D01*
X139114023Y-118721238D01*
X139018785Y-118626000D01*
X138875928Y-118578380D01*
X138780690Y-118578380D01*
X138637833Y-118626000D01*
X138590214Y-118673619D01*
X138161642Y-119578380D02*
X138161642Y-118578380D01*
X138161642Y-119054571D02*
X137590214Y-119054571D01*
X137590214Y-119578380D02*
X137590214Y-118578380D01*
X137161642Y-119292666D02*
X136685452Y-119292666D01*
X137256880Y-119578380D02*
X136923547Y-118578380D01*
X136590214Y-119578380D01*
X136256880Y-119578380D02*
X136256880Y-118578380D01*
X135685452Y-119578380D01*
X135685452Y-118578380D01*
X145066404Y-121188380D02*
X145066404Y-120188380D01*
X144685452Y-120188380D01*
X144590214Y-120236000D01*
X144542595Y-120283619D01*
X144494976Y-120378857D01*
X144494976Y-120521714D01*
X144542595Y-120616952D01*
X144590214Y-120664571D01*
X144685452Y-120712190D01*
X145066404Y-120712190D01*
X144066404Y-120664571D02*
X143733071Y-120664571D01*
X143590214Y-121188380D02*
X144066404Y-121188380D01*
X144066404Y-120188380D01*
X143590214Y-120188380D01*
X143161642Y-121188380D02*
X143161642Y-120188380D01*
X142685452Y-120807428D02*
X141923547Y-120807428D01*
X141256880Y-120712190D02*
X141256880Y-121188380D01*
X141590214Y-120188380D02*
X141256880Y-120712190D01*
X140923547Y-120188380D01*
X140590214Y-120188380D02*
X140590214Y-120997904D01*
X140542595Y-121093142D01*
X140494976Y-121140761D01*
X140399738Y-121188380D01*
X140209261Y-121188380D01*
X140114023Y-121140761D01*
X140066404Y-121093142D01*
X140018785Y-120997904D01*
X140018785Y-120188380D01*
X138780690Y-121188380D02*
X138780690Y-120188380D01*
X138780690Y-120664571D02*
X138209261Y-120664571D01*
X138209261Y-121188380D02*
X138209261Y-120188380D01*
X137733071Y-120188380D02*
X137733071Y-120997904D01*
X137685452Y-121093142D01*
X137637833Y-121140761D01*
X137542595Y-121188380D01*
X137352119Y-121188380D01*
X137256880Y-121140761D01*
X137209261Y-121093142D01*
X137161642Y-120997904D01*
X137161642Y-120188380D01*
X136733071Y-120902666D02*
X136256880Y-120902666D01*
X136828309Y-121188380D02*
X136494976Y-120188380D01*
X136161642Y-121188380D01*
X135828309Y-121188380D02*
X135828309Y-120188380D01*
X135256880Y-121188380D01*
X135256880Y-120188380D01*
X134256880Y-120236000D02*
X134352119Y-120188380D01*
X134494976Y-120188380D01*
X134637833Y-120236000D01*
X134733071Y-120331238D01*
X134780690Y-120426476D01*
X134828309Y-120616952D01*
X134828309Y-120759809D01*
X134780690Y-120950285D01*
X134733071Y-121045523D01*
X134637833Y-121140761D01*
X134494976Y-121188380D01*
X134399738Y-121188380D01*
X134256880Y-121140761D01*
X134209261Y-121093142D01*
X134209261Y-120759809D01*
X134399738Y-120759809D01*
X145066404Y-122798380D02*
X145066404Y-121798380D01*
X144733071Y-122512666D01*
X144399738Y-121798380D01*
X144399738Y-122798380D01*
X143733071Y-121798380D02*
X143542595Y-121798380D01*
X143447357Y-121846000D01*
X143352119Y-121941238D01*
X143304500Y-122131714D01*
X143304500Y-122465047D01*
X143352119Y-122655523D01*
X143447357Y-122750761D01*
X143542595Y-122798380D01*
X143733071Y-122798380D01*
X143828309Y-122750761D01*
X143923547Y-122655523D01*
X143971166Y-122465047D01*
X143971166Y-122131714D01*
X143923547Y-121941238D01*
X143828309Y-121846000D01*
X143733071Y-121798380D01*
X142875928Y-122798380D02*
X142875928Y-121798380D01*
X142875928Y-122274571D02*
X142304500Y-122274571D01*
X142304500Y-122798380D02*
X142304500Y-121798380D01*
X141875928Y-122512666D02*
X141399738Y-122512666D01*
X141971166Y-122798380D02*
X141637833Y-121798380D01*
X141304500Y-122798380D01*
X140971166Y-122798380D02*
X140971166Y-121798380D01*
X140637833Y-122512666D01*
X140304500Y-121798380D01*
X140304500Y-122798380D01*
X139828309Y-122798380D02*
X139828309Y-121798380D01*
X139494976Y-122512666D01*
X139161642Y-121798380D01*
X139161642Y-122798380D01*
X138733071Y-122512666D02*
X138256880Y-122512666D01*
X138828309Y-122798380D02*
X138494976Y-121798380D01*
X138161642Y-122798380D01*
X137828309Y-122798380D02*
X137828309Y-121798380D01*
X137590214Y-121798380D01*
X137447357Y-121846000D01*
X137352119Y-121941238D01*
X137304500Y-122036476D01*
X137256880Y-122226952D01*
X137256880Y-122369809D01*
X137304500Y-122560285D01*
X137352119Y-122655523D01*
X137447357Y-122750761D01*
X137590214Y-122798380D01*
X137828309Y-122798380D01*
X136066404Y-122798380D02*
X136066404Y-121798380D01*
X135494976Y-122798380D02*
X135923547Y-122226952D01*
X135494976Y-121798380D02*
X136066404Y-122369809D01*
X135114023Y-122512666D02*
X134637833Y-122512666D01*
X135209261Y-122798380D02*
X134875928Y-121798380D01*
X134542595Y-122798380D01*
X134209261Y-122798380D02*
X134209261Y-121798380D01*
X133875928Y-122512666D01*
X133542595Y-121798380D01*
X133542595Y-122798380D01*
X133114023Y-122512666D02*
X132637833Y-122512666D01*
X133209261Y-122798380D02*
X132875928Y-121798380D01*
X132542595Y-122798380D01*
X131733071Y-122798380D02*
X132209261Y-122798380D01*
X132209261Y-121798380D01*
X145114023Y-124360761D02*
X144971166Y-124408380D01*
X144733071Y-124408380D01*
X144637833Y-124360761D01*
X144590214Y-124313142D01*
X144542595Y-124217904D01*
X144542595Y-124122666D01*
X144590214Y-124027428D01*
X144637833Y-123979809D01*
X144733071Y-123932190D01*
X144923547Y-123884571D01*
X145018785Y-123836952D01*
X145066404Y-123789333D01*
X145114023Y-123694095D01*
X145114023Y-123598857D01*
X145066404Y-123503619D01*
X145018785Y-123456000D01*
X144923547Y-123408380D01*
X144685452Y-123408380D01*
X144542595Y-123456000D01*
X144114023Y-124408380D02*
X144114023Y-123408380D01*
X144114023Y-123884571D02*
X143542595Y-123884571D01*
X143542595Y-124408380D02*
X143542595Y-123408380D01*
X143066404Y-123408380D02*
X143066404Y-124217904D01*
X143018785Y-124313142D01*
X142971166Y-124360761D01*
X142875928Y-124408380D01*
X142685452Y-124408380D01*
X142590214Y-124360761D01*
X142542595Y-124313142D01*
X142494976Y-124217904D01*
X142494976Y-123408380D01*
X142018785Y-124027428D02*
X141256880Y-124027428D01*
X140590214Y-123932190D02*
X140590214Y-124408380D01*
X140923547Y-123408380D02*
X140590214Y-123932190D01*
X140256880Y-123408380D01*
X139923547Y-123408380D02*
X139923547Y-124217904D01*
X139875928Y-124313142D01*
X139828309Y-124360761D01*
X139733071Y-124408380D01*
X139542595Y-124408380D01*
X139447357Y-124360761D01*
X139399738Y-124313142D01*
X139352119Y-124217904D01*
X139352119Y-123408380D01*
X137637833Y-124408380D02*
X138114023Y-124408380D01*
X138114023Y-123408380D01*
X137304500Y-124408380D02*
X137304500Y-123408380D01*
X136828309Y-124408380D02*
X136828309Y-123408380D01*
X136256880Y-124408380D01*
X136256880Y-123408380D01*
X149542380Y-124275809D02*
X149428095Y-124313904D01*
X149237619Y-124313904D01*
X149161428Y-124275809D01*
X149123333Y-124237714D01*
X149085238Y-124161523D01*
X149085238Y-124085333D01*
X149123333Y-124009142D01*
X149161428Y-123971047D01*
X149237619Y-123932952D01*
X149390000Y-123894857D01*
X149466190Y-123856761D01*
X149504285Y-123818666D01*
X149542380Y-123742476D01*
X149542380Y-123666285D01*
X149504285Y-123590095D01*
X149466190Y-123552000D01*
X149390000Y-123513904D01*
X149199523Y-123513904D01*
X149085238Y-123552000D01*
X148285238Y-124237714D02*
X148323333Y-124275809D01*
X148437619Y-124313904D01*
X148513809Y-124313904D01*
X148628095Y-124275809D01*
X148704285Y-124199619D01*
X148742380Y-124123428D01*
X148780476Y-123971047D01*
X148780476Y-123856761D01*
X148742380Y-123704380D01*
X148704285Y-123628190D01*
X148628095Y-123552000D01*
X148513809Y-123513904D01*
X148437619Y-123513904D01*
X148323333Y-123552000D01*
X148285238Y-123590095D01*
X147561428Y-124313904D02*
X147942380Y-124313904D01*
X147942380Y-123513904D01*
X153117428Y-124275809D02*
X153003142Y-124313904D01*
X152812666Y-124313904D01*
X152736476Y-124275809D01*
X152698380Y-124237714D01*
X152660285Y-124161523D01*
X152660285Y-124085333D01*
X152698380Y-124009142D01*
X152736476Y-123971047D01*
X152812666Y-123932952D01*
X152965047Y-123894857D01*
X153041238Y-123856761D01*
X153079333Y-123818666D01*
X153117428Y-123742476D01*
X153117428Y-123666285D01*
X153079333Y-123590095D01*
X153041238Y-123552000D01*
X152965047Y-123513904D01*
X152774571Y-123513904D01*
X152660285Y-123552000D01*
X152317428Y-124313904D02*
X152317428Y-123513904D01*
X152126952Y-123513904D01*
X152012666Y-123552000D01*
X151936476Y-123628190D01*
X151898380Y-123704380D01*
X151860285Y-123856761D01*
X151860285Y-123971047D01*
X151898380Y-124123428D01*
X151936476Y-124199619D01*
X152012666Y-124275809D01*
X152126952Y-124313904D01*
X152317428Y-124313904D01*
X151555523Y-124085333D02*
X151174571Y-124085333D01*
X151631714Y-124313904D02*
X151365047Y-123513904D01*
X151098380Y-124313904D01*
X156984571Y-124009142D02*
X156375047Y-124009142D01*
X156679809Y-124313904D02*
X156679809Y-123704380D01*
X155613142Y-123513904D02*
X155994095Y-123513904D01*
X156032190Y-123894857D01*
X155994095Y-123856761D01*
X155917904Y-123818666D01*
X155727428Y-123818666D01*
X155651238Y-123856761D01*
X155613142Y-123894857D01*
X155575047Y-123971047D01*
X155575047Y-124161523D01*
X155613142Y-124237714D01*
X155651238Y-124275809D01*
X155727428Y-124313904D01*
X155917904Y-124313904D01*
X155994095Y-124275809D01*
X156032190Y-124237714D01*
X155346476Y-123513904D02*
X155079809Y-124313904D01*
X154813142Y-123513904D01*
X133489523Y-108769142D02*
X132880000Y-108769142D01*
X133184761Y-109073904D02*
X133184761Y-108464380D01*
X132575238Y-108273904D02*
X132080000Y-108273904D01*
X132346666Y-108578666D01*
X132232380Y-108578666D01*
X132156190Y-108616761D01*
X132118095Y-108654857D01*
X132080000Y-108731047D01*
X132080000Y-108921523D01*
X132118095Y-108997714D01*
X132156190Y-109035809D01*
X132232380Y-109073904D01*
X132460952Y-109073904D01*
X132537142Y-109035809D01*
X132575238Y-108997714D01*
X131851428Y-108273904D02*
X131584761Y-109073904D01*
X131318095Y-108273904D01*
X131127619Y-108273904D02*
X130632380Y-108273904D01*
X130899047Y-108578666D01*
X130784761Y-108578666D01*
X130708571Y-108616761D01*
X130670476Y-108654857D01*
X130632380Y-108731047D01*
X130632380Y-108921523D01*
X130670476Y-108997714D01*
X130708571Y-109035809D01*
X130784761Y-109073904D01*
X131013333Y-109073904D01*
X131089523Y-109035809D01*
X131127619Y-108997714D01*
X160375523Y-123552000D02*
X160451714Y-123513904D01*
X160566000Y-123513904D01*
X160680285Y-123552000D01*
X160756476Y-123628190D01*
X160794571Y-123704380D01*
X160832666Y-123856761D01*
X160832666Y-123971047D01*
X160794571Y-124123428D01*
X160756476Y-124199619D01*
X160680285Y-124275809D01*
X160566000Y-124313904D01*
X160489809Y-124313904D01*
X160375523Y-124275809D01*
X160337428Y-124237714D01*
X160337428Y-123971047D01*
X160489809Y-123971047D01*
X159994571Y-124313904D02*
X159994571Y-123513904D01*
X159537428Y-124313904D01*
X159537428Y-123513904D01*
X159156476Y-124313904D02*
X159156476Y-123513904D01*
X158966000Y-123513904D01*
X158851714Y-123552000D01*
X158775523Y-123628190D01*
X158737428Y-123704380D01*
X158699333Y-123856761D01*
X158699333Y-123971047D01*
X158737428Y-124123428D01*
X158775523Y-124199619D01*
X158851714Y-124275809D01*
X158966000Y-124313904D01*
X159156476Y-124313904D01*
%TO.C,R16*%
X119371285Y-105489904D02*
X119637952Y-105108952D01*
X119828428Y-105489904D02*
X119828428Y-104689904D01*
X119523666Y-104689904D01*
X119447476Y-104728000D01*
X119409380Y-104766095D01*
X119371285Y-104842285D01*
X119371285Y-104956571D01*
X119409380Y-105032761D01*
X119447476Y-105070857D01*
X119523666Y-105108952D01*
X119828428Y-105108952D01*
X118609380Y-105489904D02*
X119066523Y-105489904D01*
X118837952Y-105489904D02*
X118837952Y-104689904D01*
X118914142Y-104804190D01*
X118990333Y-104880380D01*
X119066523Y-104918476D01*
X117923666Y-104689904D02*
X118076047Y-104689904D01*
X118152238Y-104728000D01*
X118190333Y-104766095D01*
X118266523Y-104880380D01*
X118304619Y-105032761D01*
X118304619Y-105337523D01*
X118266523Y-105413714D01*
X118228428Y-105451809D01*
X118152238Y-105489904D01*
X117999857Y-105489904D01*
X117923666Y-105451809D01*
X117885571Y-105413714D01*
X117847476Y-105337523D01*
X117847476Y-105147047D01*
X117885571Y-105070857D01*
X117923666Y-105032761D01*
X117999857Y-104994666D01*
X118152238Y-104994666D01*
X118228428Y-105032761D01*
X118266523Y-105070857D01*
X118304619Y-105147047D01*
%TO.C,R13*%
X154057285Y-111740904D02*
X154323952Y-111359952D01*
X154514428Y-111740904D02*
X154514428Y-110940904D01*
X154209666Y-110940904D01*
X154133476Y-110979000D01*
X154095380Y-111017095D01*
X154057285Y-111093285D01*
X154057285Y-111207571D01*
X154095380Y-111283761D01*
X154133476Y-111321857D01*
X154209666Y-111359952D01*
X154514428Y-111359952D01*
X153295380Y-111740904D02*
X153752523Y-111740904D01*
X153523952Y-111740904D02*
X153523952Y-110940904D01*
X153600142Y-111055190D01*
X153676333Y-111131380D01*
X153752523Y-111169476D01*
X153028714Y-110940904D02*
X152533476Y-110940904D01*
X152800142Y-111245666D01*
X152685857Y-111245666D01*
X152609666Y-111283761D01*
X152571571Y-111321857D01*
X152533476Y-111398047D01*
X152533476Y-111588523D01*
X152571571Y-111664714D01*
X152609666Y-111702809D01*
X152685857Y-111740904D01*
X152914428Y-111740904D01*
X152990619Y-111702809D01*
X153028714Y-111664714D01*
%TO.C,R10*%
X155454285Y-110470904D02*
X155720952Y-110089952D01*
X155911428Y-110470904D02*
X155911428Y-109670904D01*
X155606666Y-109670904D01*
X155530476Y-109709000D01*
X155492380Y-109747095D01*
X155454285Y-109823285D01*
X155454285Y-109937571D01*
X155492380Y-110013761D01*
X155530476Y-110051857D01*
X155606666Y-110089952D01*
X155911428Y-110089952D01*
X154692380Y-110470904D02*
X155149523Y-110470904D01*
X154920952Y-110470904D02*
X154920952Y-109670904D01*
X154997142Y-109785190D01*
X155073333Y-109861380D01*
X155149523Y-109899476D01*
X154197142Y-109670904D02*
X154120952Y-109670904D01*
X154044761Y-109709000D01*
X154006666Y-109747095D01*
X153968571Y-109823285D01*
X153930476Y-109975666D01*
X153930476Y-110166142D01*
X153968571Y-110318523D01*
X154006666Y-110394714D01*
X154044761Y-110432809D01*
X154120952Y-110470904D01*
X154197142Y-110470904D01*
X154273333Y-110432809D01*
X154311428Y-110394714D01*
X154349523Y-110318523D01*
X154387619Y-110166142D01*
X154387619Y-109975666D01*
X154349523Y-109823285D01*
X154311428Y-109747095D01*
X154273333Y-109709000D01*
X154197142Y-109670904D01*
%TO.C,C14*%
X115830285Y-100310714D02*
X115868380Y-100348809D01*
X115982666Y-100386904D01*
X116058857Y-100386904D01*
X116173142Y-100348809D01*
X116249333Y-100272619D01*
X116287428Y-100196428D01*
X116325523Y-100044047D01*
X116325523Y-99929761D01*
X116287428Y-99777380D01*
X116249333Y-99701190D01*
X116173142Y-99625000D01*
X116058857Y-99586904D01*
X115982666Y-99586904D01*
X115868380Y-99625000D01*
X115830285Y-99663095D01*
X115068380Y-100386904D02*
X115525523Y-100386904D01*
X115296952Y-100386904D02*
X115296952Y-99586904D01*
X115373142Y-99701190D01*
X115449333Y-99777380D01*
X115525523Y-99815476D01*
X114382666Y-99853571D02*
X114382666Y-100386904D01*
X114573142Y-99548809D02*
X114763619Y-100120238D01*
X114268380Y-100120238D01*
%TO.C,D6*%
X128146476Y-84877904D02*
X128146476Y-84077904D01*
X127956000Y-84077904D01*
X127841714Y-84116000D01*
X127765523Y-84192190D01*
X127727428Y-84268380D01*
X127689333Y-84420761D01*
X127689333Y-84535047D01*
X127727428Y-84687428D01*
X127765523Y-84763619D01*
X127841714Y-84839809D01*
X127956000Y-84877904D01*
X128146476Y-84877904D01*
X127003619Y-84077904D02*
X127156000Y-84077904D01*
X127232190Y-84116000D01*
X127270285Y-84154095D01*
X127346476Y-84268380D01*
X127384571Y-84420761D01*
X127384571Y-84725523D01*
X127346476Y-84801714D01*
X127308380Y-84839809D01*
X127232190Y-84877904D01*
X127079809Y-84877904D01*
X127003619Y-84839809D01*
X126965523Y-84801714D01*
X126927428Y-84725523D01*
X126927428Y-84535047D01*
X126965523Y-84458857D01*
X127003619Y-84420761D01*
X127079809Y-84382666D01*
X127232190Y-84382666D01*
X127308380Y-84420761D01*
X127346476Y-84458857D01*
X127384571Y-84535047D01*
X127117904Y-85396000D02*
X127308380Y-85396000D01*
X127232190Y-85205523D02*
X127308380Y-85396000D01*
X127232190Y-85586476D01*
X127460761Y-85281714D02*
X127308380Y-85396000D01*
X127460761Y-85510285D01*
%TO.C,R4*%
X179965333Y-96225905D02*
X180232000Y-95844953D01*
X180422476Y-96225905D02*
X180422476Y-95425905D01*
X180117714Y-95425905D01*
X180041523Y-95464001D01*
X180003428Y-95502096D01*
X179965333Y-95578286D01*
X179965333Y-95692572D01*
X180003428Y-95768762D01*
X180041523Y-95806858D01*
X180117714Y-95844953D01*
X180422476Y-95844953D01*
X179279619Y-95692572D02*
X179279619Y-96225905D01*
X179470095Y-95387810D02*
X179660571Y-95959239D01*
X179165333Y-95959239D01*
%TO.C,C7*%
X171305785Y-96551714D02*
X171343880Y-96589809D01*
X171458166Y-96627904D01*
X171534357Y-96627904D01*
X171648642Y-96589809D01*
X171724833Y-96513619D01*
X171762928Y-96437428D01*
X171801023Y-96285047D01*
X171801023Y-96170761D01*
X171762928Y-96018380D01*
X171724833Y-95942190D01*
X171648642Y-95866000D01*
X171534357Y-95827904D01*
X171458166Y-95827904D01*
X171343880Y-95866000D01*
X171305785Y-95904095D01*
X171039119Y-95827904D02*
X170505785Y-95827904D01*
X170848642Y-96627904D01*
%TO.C,C10*%
X150374285Y-113188714D02*
X150412380Y-113226809D01*
X150526666Y-113264904D01*
X150602857Y-113264904D01*
X150717142Y-113226809D01*
X150793333Y-113150619D01*
X150831428Y-113074428D01*
X150869523Y-112922047D01*
X150869523Y-112807761D01*
X150831428Y-112655380D01*
X150793333Y-112579190D01*
X150717142Y-112503000D01*
X150602857Y-112464904D01*
X150526666Y-112464904D01*
X150412380Y-112503000D01*
X150374285Y-112541095D01*
X149612380Y-113264904D02*
X150069523Y-113264904D01*
X149840952Y-113264904D02*
X149840952Y-112464904D01*
X149917142Y-112579190D01*
X149993333Y-112655380D01*
X150069523Y-112693476D01*
X149117142Y-112464904D02*
X149040952Y-112464904D01*
X148964761Y-112503000D01*
X148926666Y-112541095D01*
X148888571Y-112617285D01*
X148850476Y-112769666D01*
X148850476Y-112960142D01*
X148888571Y-113112523D01*
X148926666Y-113188714D01*
X148964761Y-113226809D01*
X149040952Y-113264904D01*
X149117142Y-113264904D01*
X149193333Y-113226809D01*
X149231428Y-113188714D01*
X149269523Y-113112523D01*
X149307619Y-112960142D01*
X149307619Y-112769666D01*
X149269523Y-112617285D01*
X149231428Y-112541095D01*
X149193333Y-112503000D01*
X149117142Y-112464904D01*
%TO.C,Q1*%
X184226190Y-112017296D02*
X184302380Y-111979201D01*
X184378571Y-111903010D01*
X184492857Y-111788724D01*
X184569047Y-111750629D01*
X184645238Y-111750629D01*
X184607142Y-111941105D02*
X184683333Y-111903010D01*
X184759523Y-111826820D01*
X184797619Y-111674439D01*
X184797619Y-111407772D01*
X184759523Y-111255391D01*
X184683333Y-111179201D01*
X184607142Y-111141105D01*
X184454761Y-111141105D01*
X184378571Y-111179201D01*
X184302380Y-111255391D01*
X184264285Y-111407772D01*
X184264285Y-111674439D01*
X184302380Y-111826820D01*
X184378571Y-111903010D01*
X184454761Y-111941105D01*
X184607142Y-111941105D01*
X183502380Y-111941105D02*
X183959523Y-111941105D01*
X183730952Y-111941105D02*
X183730952Y-111141105D01*
X183807142Y-111255391D01*
X183883333Y-111331581D01*
X183959523Y-111369677D01*
%TO.C,C13*%
X119894285Y-91217714D02*
X119932380Y-91255809D01*
X120046666Y-91293904D01*
X120122857Y-91293904D01*
X120237142Y-91255809D01*
X120313333Y-91179619D01*
X120351428Y-91103428D01*
X120389523Y-90951047D01*
X120389523Y-90836761D01*
X120351428Y-90684380D01*
X120313333Y-90608190D01*
X120237142Y-90532000D01*
X120122857Y-90493904D01*
X120046666Y-90493904D01*
X119932380Y-90532000D01*
X119894285Y-90570095D01*
X119132380Y-91293904D02*
X119589523Y-91293904D01*
X119360952Y-91293904D02*
X119360952Y-90493904D01*
X119437142Y-90608190D01*
X119513333Y-90684380D01*
X119589523Y-90722476D01*
X118865714Y-90493904D02*
X118370476Y-90493904D01*
X118637142Y-90798666D01*
X118522857Y-90798666D01*
X118446666Y-90836761D01*
X118408571Y-90874857D01*
X118370476Y-90951047D01*
X118370476Y-91141523D01*
X118408571Y-91217714D01*
X118446666Y-91255809D01*
X118522857Y-91293904D01*
X118751428Y-91293904D01*
X118827619Y-91255809D01*
X118865714Y-91217714D01*
%TO.C,Q4*%
X179400190Y-117895096D02*
X179476380Y-117857001D01*
X179552571Y-117780810D01*
X179666857Y-117666524D01*
X179743047Y-117628429D01*
X179819238Y-117628429D01*
X179781142Y-117818905D02*
X179857333Y-117780810D01*
X179933523Y-117704620D01*
X179971619Y-117552239D01*
X179971619Y-117285572D01*
X179933523Y-117133191D01*
X179857333Y-117057001D01*
X179781142Y-117018905D01*
X179628761Y-117018905D01*
X179552571Y-117057001D01*
X179476380Y-117133191D01*
X179438285Y-117285572D01*
X179438285Y-117552239D01*
X179476380Y-117704620D01*
X179552571Y-117780810D01*
X179628761Y-117818905D01*
X179781142Y-117818905D01*
X178752571Y-117285572D02*
X178752571Y-117818905D01*
X178943047Y-116980810D02*
X179133523Y-117552239D01*
X178638285Y-117552239D01*
%TO.C,R14*%
X122688285Y-84943904D02*
X122954952Y-84562952D01*
X123145428Y-84943904D02*
X123145428Y-84143904D01*
X122840666Y-84143904D01*
X122764476Y-84182000D01*
X122726380Y-84220095D01*
X122688285Y-84296285D01*
X122688285Y-84410571D01*
X122726380Y-84486761D01*
X122764476Y-84524857D01*
X122840666Y-84562952D01*
X123145428Y-84562952D01*
X121926380Y-84943904D02*
X122383523Y-84943904D01*
X122154952Y-84943904D02*
X122154952Y-84143904D01*
X122231142Y-84258190D01*
X122307333Y-84334380D01*
X122383523Y-84372476D01*
X121240666Y-84410571D02*
X121240666Y-84943904D01*
X121431142Y-84105809D02*
X121621619Y-84677238D01*
X121126380Y-84677238D01*
%TO.C,R1*%
X193554333Y-109946905D02*
X193821000Y-109565953D01*
X194011476Y-109946905D02*
X194011476Y-109146905D01*
X193706714Y-109146905D01*
X193630523Y-109185001D01*
X193592428Y-109223096D01*
X193554333Y-109299286D01*
X193554333Y-109413572D01*
X193592428Y-109489762D01*
X193630523Y-109527858D01*
X193706714Y-109565953D01*
X194011476Y-109565953D01*
X192792428Y-109946905D02*
X193249571Y-109946905D01*
X193021000Y-109946905D02*
X193021000Y-109146905D01*
X193097190Y-109261191D01*
X193173380Y-109337381D01*
X193249571Y-109375477D01*
%TO.C,C5*%
X172207785Y-99202715D02*
X172245880Y-99240810D01*
X172360166Y-99278905D01*
X172436357Y-99278905D01*
X172550642Y-99240810D01*
X172626833Y-99164620D01*
X172664928Y-99088429D01*
X172703023Y-98936048D01*
X172703023Y-98821762D01*
X172664928Y-98669381D01*
X172626833Y-98593191D01*
X172550642Y-98517001D01*
X172436357Y-98478905D01*
X172360166Y-98478905D01*
X172245880Y-98517001D01*
X172207785Y-98555096D01*
X171483976Y-98478905D02*
X171864928Y-98478905D01*
X171903023Y-98859858D01*
X171864928Y-98821762D01*
X171788738Y-98783667D01*
X171598261Y-98783667D01*
X171522071Y-98821762D01*
X171483976Y-98859858D01*
X171445880Y-98936048D01*
X171445880Y-99126524D01*
X171483976Y-99202715D01*
X171522071Y-99240810D01*
X171598261Y-99278905D01*
X171788738Y-99278905D01*
X171864928Y-99240810D01*
X171903023Y-99202715D01*
%TO.C,Q7*%
X137604190Y-109531095D02*
X137680380Y-109493000D01*
X137756571Y-109416809D01*
X137870857Y-109302523D01*
X137947047Y-109264428D01*
X138023238Y-109264428D01*
X137985142Y-109454904D02*
X138061333Y-109416809D01*
X138137523Y-109340619D01*
X138175619Y-109188238D01*
X138175619Y-108921571D01*
X138137523Y-108769190D01*
X138061333Y-108693000D01*
X137985142Y-108654904D01*
X137832761Y-108654904D01*
X137756571Y-108693000D01*
X137680380Y-108769190D01*
X137642285Y-108921571D01*
X137642285Y-109188238D01*
X137680380Y-109340619D01*
X137756571Y-109416809D01*
X137832761Y-109454904D01*
X137985142Y-109454904D01*
X137375619Y-108654904D02*
X136842285Y-108654904D01*
X137185142Y-109454904D01*
%TO.C,U3*%
X124307523Y-91763904D02*
X124307523Y-92411523D01*
X124269428Y-92487714D01*
X124231333Y-92525809D01*
X124155142Y-92563904D01*
X124002761Y-92563904D01*
X123926571Y-92525809D01*
X123888476Y-92487714D01*
X123850380Y-92411523D01*
X123850380Y-91763904D01*
X123545619Y-91763904D02*
X123050380Y-91763904D01*
X123317047Y-92068666D01*
X123202761Y-92068666D01*
X123126571Y-92106761D01*
X123088476Y-92144857D01*
X123050380Y-92221047D01*
X123050380Y-92411523D01*
X123088476Y-92487714D01*
X123126571Y-92525809D01*
X123202761Y-92563904D01*
X123431333Y-92563904D01*
X123507523Y-92525809D01*
X123545619Y-92487714D01*
%TO.C,R8*%
X168281333Y-114137905D02*
X168548000Y-113756953D01*
X168738476Y-114137905D02*
X168738476Y-113337905D01*
X168433714Y-113337905D01*
X168357523Y-113376001D01*
X168319428Y-113414096D01*
X168281333Y-113490286D01*
X168281333Y-113604572D01*
X168319428Y-113680762D01*
X168357523Y-113718858D01*
X168433714Y-113756953D01*
X168738476Y-113756953D01*
X167824190Y-113680762D02*
X167900380Y-113642667D01*
X167938476Y-113604572D01*
X167976571Y-113528381D01*
X167976571Y-113490286D01*
X167938476Y-113414096D01*
X167900380Y-113376001D01*
X167824190Y-113337905D01*
X167671809Y-113337905D01*
X167595619Y-113376001D01*
X167557523Y-113414096D01*
X167519428Y-113490286D01*
X167519428Y-113528381D01*
X167557523Y-113604572D01*
X167595619Y-113642667D01*
X167671809Y-113680762D01*
X167824190Y-113680762D01*
X167900380Y-113718858D01*
X167938476Y-113756953D01*
X167976571Y-113833143D01*
X167976571Y-113985524D01*
X167938476Y-114061715D01*
X167900380Y-114099810D01*
X167824190Y-114137905D01*
X167671809Y-114137905D01*
X167595619Y-114099810D01*
X167557523Y-114061715D01*
X167519428Y-113985524D01*
X167519428Y-113833143D01*
X167557523Y-113756953D01*
X167595619Y-113718858D01*
X167671809Y-113680762D01*
%TO.C,C9*%
X158569833Y-118649714D02*
X158607928Y-118687809D01*
X158722214Y-118725904D01*
X158798404Y-118725904D01*
X158912690Y-118687809D01*
X158988880Y-118611619D01*
X159026976Y-118535428D01*
X159065071Y-118383047D01*
X159065071Y-118268761D01*
X159026976Y-118116380D01*
X158988880Y-118040190D01*
X158912690Y-117964000D01*
X158798404Y-117925904D01*
X158722214Y-117925904D01*
X158607928Y-117964000D01*
X158569833Y-118002095D01*
X158188880Y-118725904D02*
X158036500Y-118725904D01*
X157960309Y-118687809D01*
X157922214Y-118649714D01*
X157846023Y-118535428D01*
X157807928Y-118383047D01*
X157807928Y-118078285D01*
X157846023Y-118002095D01*
X157884119Y-117964000D01*
X157960309Y-117925904D01*
X158112690Y-117925904D01*
X158188880Y-117964000D01*
X158226976Y-118002095D01*
X158265071Y-118078285D01*
X158265071Y-118268761D01*
X158226976Y-118344952D01*
X158188880Y-118383047D01*
X158112690Y-118421142D01*
X157960309Y-118421142D01*
X157884119Y-118383047D01*
X157846023Y-118344952D01*
X157807928Y-118268761D01*
%TO.C,Q5*%
X174574190Y-112017296D02*
X174650380Y-111979201D01*
X174726571Y-111903010D01*
X174840857Y-111788724D01*
X174917047Y-111750629D01*
X174993238Y-111750629D01*
X174955142Y-111941105D02*
X175031333Y-111903010D01*
X175107523Y-111826820D01*
X175145619Y-111674439D01*
X175145619Y-111407772D01*
X175107523Y-111255391D01*
X175031333Y-111179201D01*
X174955142Y-111141105D01*
X174802761Y-111141105D01*
X174726571Y-111179201D01*
X174650380Y-111255391D01*
X174612285Y-111407772D01*
X174612285Y-111674439D01*
X174650380Y-111826820D01*
X174726571Y-111903010D01*
X174802761Y-111941105D01*
X174955142Y-111941105D01*
X173888476Y-111141105D02*
X174269428Y-111141105D01*
X174307523Y-111522058D01*
X174269428Y-111483962D01*
X174193238Y-111445867D01*
X174002761Y-111445867D01*
X173926571Y-111483962D01*
X173888476Y-111522058D01*
X173850380Y-111598248D01*
X173850380Y-111788724D01*
X173888476Y-111864915D01*
X173926571Y-111903010D01*
X174002761Y-111941105D01*
X174193238Y-111941105D01*
X174269428Y-111903010D01*
X174307523Y-111864915D01*
%TO.C,Q6*%
X174574190Y-117895096D02*
X174650380Y-117857001D01*
X174726571Y-117780810D01*
X174840857Y-117666524D01*
X174917047Y-117628429D01*
X174993238Y-117628429D01*
X174955142Y-117818905D02*
X175031333Y-117780810D01*
X175107523Y-117704620D01*
X175145619Y-117552239D01*
X175145619Y-117285572D01*
X175107523Y-117133191D01*
X175031333Y-117057001D01*
X174955142Y-117018905D01*
X174802761Y-117018905D01*
X174726571Y-117057001D01*
X174650380Y-117133191D01*
X174612285Y-117285572D01*
X174612285Y-117552239D01*
X174650380Y-117704620D01*
X174726571Y-117780810D01*
X174802761Y-117818905D01*
X174955142Y-117818905D01*
X173926571Y-117018905D02*
X174078952Y-117018905D01*
X174155142Y-117057001D01*
X174193238Y-117095096D01*
X174269428Y-117209381D01*
X174307523Y-117361762D01*
X174307523Y-117666524D01*
X174269428Y-117742715D01*
X174231333Y-117780810D01*
X174155142Y-117818905D01*
X174002761Y-117818905D01*
X173926571Y-117780810D01*
X173888476Y-117742715D01*
X173850380Y-117666524D01*
X173850380Y-117476048D01*
X173888476Y-117399858D01*
X173926571Y-117361762D01*
X174002761Y-117323667D01*
X174155142Y-117323667D01*
X174231333Y-117361762D01*
X174269428Y-117399858D01*
X174307523Y-117476048D01*
%TO.C,R15*%
X119894285Y-84943904D02*
X120160952Y-84562952D01*
X120351428Y-84943904D02*
X120351428Y-84143904D01*
X120046666Y-84143904D01*
X119970476Y-84182000D01*
X119932380Y-84220095D01*
X119894285Y-84296285D01*
X119894285Y-84410571D01*
X119932380Y-84486761D01*
X119970476Y-84524857D01*
X120046666Y-84562952D01*
X120351428Y-84562952D01*
X119132380Y-84943904D02*
X119589523Y-84943904D01*
X119360952Y-84943904D02*
X119360952Y-84143904D01*
X119437142Y-84258190D01*
X119513333Y-84334380D01*
X119589523Y-84372476D01*
X118408571Y-84143904D02*
X118789523Y-84143904D01*
X118827619Y-84524857D01*
X118789523Y-84486761D01*
X118713333Y-84448666D01*
X118522857Y-84448666D01*
X118446666Y-84486761D01*
X118408571Y-84524857D01*
X118370476Y-84601047D01*
X118370476Y-84791523D01*
X118408571Y-84867714D01*
X118446666Y-84905809D01*
X118522857Y-84943904D01*
X118713333Y-84943904D01*
X118789523Y-84905809D01*
X118827619Y-84867714D01*
%TO.C,R3*%
X193554333Y-112994905D02*
X193821000Y-112613953D01*
X194011476Y-112994905D02*
X194011476Y-112194905D01*
X193706714Y-112194905D01*
X193630523Y-112233001D01*
X193592428Y-112271096D01*
X193554333Y-112347286D01*
X193554333Y-112461572D01*
X193592428Y-112537762D01*
X193630523Y-112575858D01*
X193706714Y-112613953D01*
X194011476Y-112613953D01*
X193287666Y-112194905D02*
X192792428Y-112194905D01*
X193059095Y-112499667D01*
X192944809Y-112499667D01*
X192868619Y-112537762D01*
X192830523Y-112575858D01*
X192792428Y-112652048D01*
X192792428Y-112842524D01*
X192830523Y-112918715D01*
X192868619Y-112956810D01*
X192944809Y-112994905D01*
X193173380Y-112994905D01*
X193249571Y-112956810D01*
X193287666Y-112918715D01*
%TO.C,R12*%
X153295285Y-115677904D02*
X153561952Y-115296952D01*
X153752428Y-115677904D02*
X153752428Y-114877904D01*
X153447666Y-114877904D01*
X153371476Y-114916000D01*
X153333380Y-114954095D01*
X153295285Y-115030285D01*
X153295285Y-115144571D01*
X153333380Y-115220761D01*
X153371476Y-115258857D01*
X153447666Y-115296952D01*
X153752428Y-115296952D01*
X152533380Y-115677904D02*
X152990523Y-115677904D01*
X152761952Y-115677904D02*
X152761952Y-114877904D01*
X152838142Y-114992190D01*
X152914333Y-115068380D01*
X152990523Y-115106476D01*
X152228619Y-114954095D02*
X152190523Y-114916000D01*
X152114333Y-114877904D01*
X151923857Y-114877904D01*
X151847666Y-114916000D01*
X151809571Y-114954095D01*
X151771476Y-115030285D01*
X151771476Y-115106476D01*
X151809571Y-115220761D01*
X152266714Y-115677904D01*
X151771476Y-115677904D01*
%TO.C,L2*%
X114941333Y-93409904D02*
X115322285Y-93409904D01*
X115322285Y-92609904D01*
X114712761Y-92686095D02*
X114674666Y-92648000D01*
X114598476Y-92609904D01*
X114408000Y-92609904D01*
X114331809Y-92648000D01*
X114293714Y-92686095D01*
X114255619Y-92762285D01*
X114255619Y-92838476D01*
X114293714Y-92952761D01*
X114750857Y-93409904D01*
X114255619Y-93409904D01*
%TO.C,C16*%
X113290285Y-93317714D02*
X113328380Y-93355809D01*
X113442666Y-93393904D01*
X113518857Y-93393904D01*
X113633142Y-93355809D01*
X113709333Y-93279619D01*
X113747428Y-93203428D01*
X113785523Y-93051047D01*
X113785523Y-92936761D01*
X113747428Y-92784380D01*
X113709333Y-92708190D01*
X113633142Y-92632000D01*
X113518857Y-92593904D01*
X113442666Y-92593904D01*
X113328380Y-92632000D01*
X113290285Y-92670095D01*
X112528380Y-93393904D02*
X112985523Y-93393904D01*
X112756952Y-93393904D02*
X112756952Y-92593904D01*
X112833142Y-92708190D01*
X112909333Y-92784380D01*
X112985523Y-92822476D01*
X111842666Y-92593904D02*
X111995047Y-92593904D01*
X112071238Y-92632000D01*
X112109333Y-92670095D01*
X112185523Y-92784380D01*
X112223619Y-92936761D01*
X112223619Y-93241523D01*
X112185523Y-93317714D01*
X112147428Y-93355809D01*
X112071238Y-93393904D01*
X111918857Y-93393904D01*
X111842666Y-93355809D01*
X111804571Y-93317714D01*
X111766476Y-93241523D01*
X111766476Y-93051047D01*
X111804571Y-92974857D01*
X111842666Y-92936761D01*
X111918857Y-92898666D01*
X112071238Y-92898666D01*
X112147428Y-92936761D01*
X112185523Y-92974857D01*
X112223619Y-93051047D01*
%TO.C,D7*%
X125860476Y-84877904D02*
X125860476Y-84077904D01*
X125670000Y-84077904D01*
X125555714Y-84116000D01*
X125479523Y-84192190D01*
X125441428Y-84268380D01*
X125403333Y-84420761D01*
X125403333Y-84535047D01*
X125441428Y-84687428D01*
X125479523Y-84763619D01*
X125555714Y-84839809D01*
X125670000Y-84877904D01*
X125860476Y-84877904D01*
X125136666Y-84077904D02*
X124603333Y-84077904D01*
X124946190Y-84877904D01*
X124831904Y-85396000D02*
X125022380Y-85396000D01*
X124946190Y-85205523D02*
X125022380Y-85396000D01*
X124946190Y-85586476D01*
X125174761Y-85281714D02*
X125022380Y-85396000D01*
X125174761Y-85510285D01*
%TO.C,C3*%
X184537333Y-107584715D02*
X184575428Y-107622810D01*
X184689714Y-107660905D01*
X184765904Y-107660905D01*
X184880190Y-107622810D01*
X184956380Y-107546620D01*
X184994476Y-107470429D01*
X185032571Y-107318048D01*
X185032571Y-107203762D01*
X184994476Y-107051381D01*
X184956380Y-106975191D01*
X184880190Y-106899001D01*
X184765904Y-106860905D01*
X184689714Y-106860905D01*
X184575428Y-106899001D01*
X184537333Y-106937096D01*
X184270666Y-106860905D02*
X183775428Y-106860905D01*
X184042095Y-107165667D01*
X183927809Y-107165667D01*
X183851619Y-107203762D01*
X183813523Y-107241858D01*
X183775428Y-107318048D01*
X183775428Y-107508524D01*
X183813523Y-107584715D01*
X183851619Y-107622810D01*
X183927809Y-107660905D01*
X184156380Y-107660905D01*
X184232571Y-107622810D01*
X184270666Y-107584715D01*
%TO.C,R2*%
X193554333Y-111470905D02*
X193821000Y-111089953D01*
X194011476Y-111470905D02*
X194011476Y-110670905D01*
X193706714Y-110670905D01*
X193630523Y-110709001D01*
X193592428Y-110747096D01*
X193554333Y-110823286D01*
X193554333Y-110937572D01*
X193592428Y-111013762D01*
X193630523Y-111051858D01*
X193706714Y-111089953D01*
X194011476Y-111089953D01*
X193249571Y-110747096D02*
X193211476Y-110709001D01*
X193135285Y-110670905D01*
X192944809Y-110670905D01*
X192868619Y-110709001D01*
X192830523Y-110747096D01*
X192792428Y-110823286D01*
X192792428Y-110899477D01*
X192830523Y-111013762D01*
X193287666Y-111470905D01*
X192792428Y-111470905D01*
%TO.C,D5*%
X175342476Y-87193004D02*
X175342476Y-86393004D01*
X175152000Y-86393004D01*
X175037714Y-86431100D01*
X174961523Y-86507290D01*
X174923428Y-86583480D01*
X174885333Y-86735861D01*
X174885333Y-86850147D01*
X174923428Y-87002528D01*
X174961523Y-87078719D01*
X175037714Y-87154909D01*
X175152000Y-87193004D01*
X175342476Y-87193004D01*
X174161523Y-86393004D02*
X174542476Y-86393004D01*
X174580571Y-86773957D01*
X174542476Y-86735861D01*
X174466285Y-86697766D01*
X174275809Y-86697766D01*
X174199619Y-86735861D01*
X174161523Y-86773957D01*
X174123428Y-86850147D01*
X174123428Y-87040623D01*
X174161523Y-87116814D01*
X174199619Y-87154909D01*
X174275809Y-87193004D01*
X174466285Y-87193004D01*
X174542476Y-87154909D01*
X174580571Y-87116814D01*
X174313904Y-90471100D02*
X174504380Y-90471100D01*
X174428190Y-90280623D02*
X174504380Y-90471100D01*
X174428190Y-90661576D01*
X174656761Y-90356814D02*
X174504380Y-90471100D01*
X174656761Y-90585385D01*
%TO.C,C2*%
X185299333Y-99075715D02*
X185337428Y-99113810D01*
X185451714Y-99151905D01*
X185527904Y-99151905D01*
X185642190Y-99113810D01*
X185718380Y-99037620D01*
X185756476Y-98961429D01*
X185794571Y-98809048D01*
X185794571Y-98694762D01*
X185756476Y-98542381D01*
X185718380Y-98466191D01*
X185642190Y-98390001D01*
X185527904Y-98351905D01*
X185451714Y-98351905D01*
X185337428Y-98390001D01*
X185299333Y-98428096D01*
X184994571Y-98428096D02*
X184956476Y-98390001D01*
X184880285Y-98351905D01*
X184689809Y-98351905D01*
X184613619Y-98390001D01*
X184575523Y-98428096D01*
X184537428Y-98504286D01*
X184537428Y-98580477D01*
X184575523Y-98694762D01*
X185032666Y-99151905D01*
X184537428Y-99151905D01*
%TO.C,Q3*%
X179400190Y-112017296D02*
X179476380Y-111979201D01*
X179552571Y-111903010D01*
X179666857Y-111788724D01*
X179743047Y-111750629D01*
X179819238Y-111750629D01*
X179781142Y-111941105D02*
X179857333Y-111903010D01*
X179933523Y-111826820D01*
X179971619Y-111674439D01*
X179971619Y-111407772D01*
X179933523Y-111255391D01*
X179857333Y-111179201D01*
X179781142Y-111141105D01*
X179628761Y-111141105D01*
X179552571Y-111179201D01*
X179476380Y-111255391D01*
X179438285Y-111407772D01*
X179438285Y-111674439D01*
X179476380Y-111826820D01*
X179552571Y-111903010D01*
X179628761Y-111941105D01*
X179781142Y-111941105D01*
X179171619Y-111141105D02*
X178676380Y-111141105D01*
X178943047Y-111445867D01*
X178828761Y-111445867D01*
X178752571Y-111483962D01*
X178714476Y-111522058D01*
X178676380Y-111598248D01*
X178676380Y-111788724D01*
X178714476Y-111864915D01*
X178752571Y-111903010D01*
X178828761Y-111941105D01*
X179057333Y-111941105D01*
X179133523Y-111903010D01*
X179171619Y-111864915D01*
%TO.C,F1*%
X178066666Y-84868957D02*
X178333333Y-84868957D01*
X178333333Y-85288004D02*
X178333333Y-84488004D01*
X177952380Y-84488004D01*
X177228571Y-85288004D02*
X177685714Y-85288004D01*
X177457142Y-85288004D02*
X177457142Y-84488004D01*
X177533333Y-84602290D01*
X177609523Y-84678480D01*
X177685714Y-84716576D01*
%TO.C,D8*%
X116716476Y-84877904D02*
X116716476Y-84077904D01*
X116526000Y-84077904D01*
X116411714Y-84116000D01*
X116335523Y-84192190D01*
X116297428Y-84268380D01*
X116259333Y-84420761D01*
X116259333Y-84535047D01*
X116297428Y-84687428D01*
X116335523Y-84763619D01*
X116411714Y-84839809D01*
X116526000Y-84877904D01*
X116716476Y-84877904D01*
X115802190Y-84420761D02*
X115878380Y-84382666D01*
X115916476Y-84344571D01*
X115954571Y-84268380D01*
X115954571Y-84230285D01*
X115916476Y-84154095D01*
X115878380Y-84116000D01*
X115802190Y-84077904D01*
X115649809Y-84077904D01*
X115573619Y-84116000D01*
X115535523Y-84154095D01*
X115497428Y-84230285D01*
X115497428Y-84268380D01*
X115535523Y-84344571D01*
X115573619Y-84382666D01*
X115649809Y-84420761D01*
X115802190Y-84420761D01*
X115878380Y-84458857D01*
X115916476Y-84496952D01*
X115954571Y-84573142D01*
X115954571Y-84725523D01*
X115916476Y-84801714D01*
X115878380Y-84839809D01*
X115802190Y-84877904D01*
X115649809Y-84877904D01*
X115573619Y-84839809D01*
X115535523Y-84801714D01*
X115497428Y-84725523D01*
X115497428Y-84573142D01*
X115535523Y-84496952D01*
X115573619Y-84458857D01*
X115649809Y-84420761D01*
X115687904Y-85396000D02*
X115878380Y-85396000D01*
X115802190Y-85205523D02*
X115878380Y-85396000D01*
X115802190Y-85586476D01*
X116030761Y-85281714D02*
X115878380Y-85396000D01*
X116030761Y-85510285D01*
%TO.C,C4*%
X184537333Y-100928715D02*
X184575428Y-100966810D01*
X184689714Y-101004905D01*
X184765904Y-101004905D01*
X184880190Y-100966810D01*
X184956380Y-100890620D01*
X184994476Y-100814429D01*
X185032571Y-100662048D01*
X185032571Y-100547762D01*
X184994476Y-100395381D01*
X184956380Y-100319191D01*
X184880190Y-100243001D01*
X184765904Y-100204905D01*
X184689714Y-100204905D01*
X184575428Y-100243001D01*
X184537333Y-100281096D01*
X183851619Y-100471572D02*
X183851619Y-101004905D01*
X184042095Y-100166810D02*
X184232571Y-100738239D01*
X183737333Y-100738239D01*
%TO.C,C1*%
X185299333Y-97297715D02*
X185337428Y-97335810D01*
X185451714Y-97373905D01*
X185527904Y-97373905D01*
X185642190Y-97335810D01*
X185718380Y-97259620D01*
X185756476Y-97183429D01*
X185794571Y-97031048D01*
X185794571Y-96916762D01*
X185756476Y-96764381D01*
X185718380Y-96688191D01*
X185642190Y-96612001D01*
X185527904Y-96573905D01*
X185451714Y-96573905D01*
X185337428Y-96612001D01*
X185299333Y-96650096D01*
X184537428Y-97373905D02*
X184994571Y-97373905D01*
X184766000Y-97373905D02*
X184766000Y-96573905D01*
X184842190Y-96688191D01*
X184918380Y-96764381D01*
X184994571Y-96802477D01*
%TO.C,C12*%
X122688285Y-91217714D02*
X122726380Y-91255809D01*
X122840666Y-91293904D01*
X122916857Y-91293904D01*
X123031142Y-91255809D01*
X123107333Y-91179619D01*
X123145428Y-91103428D01*
X123183523Y-90951047D01*
X123183523Y-90836761D01*
X123145428Y-90684380D01*
X123107333Y-90608190D01*
X123031142Y-90532000D01*
X122916857Y-90493904D01*
X122840666Y-90493904D01*
X122726380Y-90532000D01*
X122688285Y-90570095D01*
X121926380Y-91293904D02*
X122383523Y-91293904D01*
X122154952Y-91293904D02*
X122154952Y-90493904D01*
X122231142Y-90608190D01*
X122307333Y-90684380D01*
X122383523Y-90722476D01*
X121621619Y-90570095D02*
X121583523Y-90532000D01*
X121507333Y-90493904D01*
X121316857Y-90493904D01*
X121240666Y-90532000D01*
X121202571Y-90570095D01*
X121164476Y-90646285D01*
X121164476Y-90722476D01*
X121202571Y-90836761D01*
X121659714Y-91293904D01*
X121164476Y-91293904D01*
%TO.C,L1*%
X178180983Y-98643905D02*
X178561935Y-98643905D01*
X178561935Y-97843905D01*
X177495269Y-98643905D02*
X177952411Y-98643905D01*
X177723840Y-98643905D02*
X177723840Y-97843905D01*
X177800030Y-97958191D01*
X177876221Y-98034381D01*
X177952411Y-98072477D01*
%TO.C,C8*%
X158629333Y-113315714D02*
X158667428Y-113353809D01*
X158781714Y-113391904D01*
X158857904Y-113391904D01*
X158972190Y-113353809D01*
X159048380Y-113277619D01*
X159086476Y-113201428D01*
X159124571Y-113049047D01*
X159124571Y-112934761D01*
X159086476Y-112782380D01*
X159048380Y-112706190D01*
X158972190Y-112630000D01*
X158857904Y-112591904D01*
X158781714Y-112591904D01*
X158667428Y-112630000D01*
X158629333Y-112668095D01*
X158172190Y-112934761D02*
X158248380Y-112896666D01*
X158286476Y-112858571D01*
X158324571Y-112782380D01*
X158324571Y-112744285D01*
X158286476Y-112668095D01*
X158248380Y-112630000D01*
X158172190Y-112591904D01*
X158019809Y-112591904D01*
X157943619Y-112630000D01*
X157905523Y-112668095D01*
X157867428Y-112744285D01*
X157867428Y-112782380D01*
X157905523Y-112858571D01*
X157943619Y-112896666D01*
X158019809Y-112934761D01*
X158172190Y-112934761D01*
X158248380Y-112972857D01*
X158286476Y-113010952D01*
X158324571Y-113087142D01*
X158324571Y-113239523D01*
X158286476Y-113315714D01*
X158248380Y-113353809D01*
X158172190Y-113391904D01*
X158019809Y-113391904D01*
X157943619Y-113353809D01*
X157905523Y-113315714D01*
X157867428Y-113239523D01*
X157867428Y-113087142D01*
X157905523Y-113010952D01*
X157943619Y-112972857D01*
X158019809Y-112934761D01*
%TO.C,U2*%
X184378523Y-103939905D02*
X184378523Y-104587524D01*
X184340428Y-104663715D01*
X184302333Y-104701810D01*
X184226142Y-104739905D01*
X184073761Y-104739905D01*
X183997571Y-104701810D01*
X183959476Y-104663715D01*
X183921380Y-104587524D01*
X183921380Y-103939905D01*
X183578523Y-104016096D02*
X183540428Y-103978001D01*
X183464238Y-103939905D01*
X183273761Y-103939905D01*
X183197571Y-103978001D01*
X183159476Y-104016096D01*
X183121380Y-104092286D01*
X183121380Y-104168477D01*
X183159476Y-104282762D01*
X183616619Y-104739905D01*
X183121380Y-104739905D01*
X185077100Y-105541181D02*
X185077100Y-105779277D01*
X185315195Y-105684039D02*
X185077100Y-105779277D01*
X184839004Y-105684039D01*
X185219957Y-105969753D02*
X185077100Y-105779277D01*
X184934242Y-105969753D01*
%TO.C,R7*%
X170583132Y-111343905D02*
X170849799Y-110962953D01*
X171040275Y-111343905D02*
X171040275Y-110543905D01*
X170735513Y-110543905D01*
X170659322Y-110582001D01*
X170621227Y-110620096D01*
X170583132Y-110696286D01*
X170583132Y-110810572D01*
X170621227Y-110886762D01*
X170659322Y-110924858D01*
X170735513Y-110962953D01*
X171040275Y-110962953D01*
X170316465Y-110543905D02*
X169783132Y-110543905D01*
X170125989Y-111343905D01*
%TO.C,R5*%
X178314333Y-96225905D02*
X178581000Y-95844953D01*
X178771476Y-96225905D02*
X178771476Y-95425905D01*
X178466714Y-95425905D01*
X178390523Y-95464001D01*
X178352428Y-95502096D01*
X178314333Y-95578286D01*
X178314333Y-95692572D01*
X178352428Y-95768762D01*
X178390523Y-95806858D01*
X178466714Y-95844953D01*
X178771476Y-95844953D01*
X177590523Y-95425905D02*
X177971476Y-95425905D01*
X178009571Y-95806858D01*
X177971476Y-95768762D01*
X177895285Y-95730667D01*
X177704809Y-95730667D01*
X177628619Y-95768762D01*
X177590523Y-95806858D01*
X177552428Y-95883048D01*
X177552428Y-96073524D01*
X177590523Y-96149715D01*
X177628619Y-96187810D01*
X177704809Y-96225905D01*
X177895285Y-96225905D01*
X177971476Y-96187810D01*
X178009571Y-96149715D01*
%TO.C,U1*%
X163779123Y-108959704D02*
X163779123Y-109607323D01*
X163741028Y-109683514D01*
X163702933Y-109721609D01*
X163626742Y-109759704D01*
X163474361Y-109759704D01*
X163398171Y-109721609D01*
X163360076Y-109683514D01*
X163321980Y-109607323D01*
X163321980Y-108959704D01*
X162521980Y-109759704D02*
X162979123Y-109759704D01*
X162750552Y-109759704D02*
X162750552Y-108959704D01*
X162826742Y-109073990D01*
X162902933Y-109150180D01*
X162979123Y-109188276D01*
%TO.C,R6*%
X176663333Y-96225905D02*
X176930000Y-95844953D01*
X177120476Y-96225905D02*
X177120476Y-95425905D01*
X176815714Y-95425905D01*
X176739523Y-95464001D01*
X176701428Y-95502096D01*
X176663333Y-95578286D01*
X176663333Y-95692572D01*
X176701428Y-95768762D01*
X176739523Y-95806858D01*
X176815714Y-95844953D01*
X177120476Y-95844953D01*
X175977619Y-95425905D02*
X176130000Y-95425905D01*
X176206190Y-95464001D01*
X176244285Y-95502096D01*
X176320476Y-95616381D01*
X176358571Y-95768762D01*
X176358571Y-96073524D01*
X176320476Y-96149715D01*
X176282380Y-96187810D01*
X176206190Y-96225905D01*
X176053809Y-96225905D01*
X175977619Y-96187810D01*
X175939523Y-96149715D01*
X175901428Y-96073524D01*
X175901428Y-95883048D01*
X175939523Y-95806858D01*
X175977619Y-95768762D01*
X176053809Y-95730667D01*
X176206190Y-95730667D01*
X176282380Y-95768762D01*
X176320476Y-95806858D01*
X176358571Y-95883048D01*
%TO.C,Q2*%
X184226190Y-117895096D02*
X184302380Y-117857001D01*
X184378571Y-117780810D01*
X184492857Y-117666524D01*
X184569047Y-117628429D01*
X184645238Y-117628429D01*
X184607142Y-117818905D02*
X184683333Y-117780810D01*
X184759523Y-117704620D01*
X184797619Y-117552239D01*
X184797619Y-117285572D01*
X184759523Y-117133191D01*
X184683333Y-117057001D01*
X184607142Y-117018905D01*
X184454761Y-117018905D01*
X184378571Y-117057001D01*
X184302380Y-117133191D01*
X184264285Y-117285572D01*
X184264285Y-117552239D01*
X184302380Y-117704620D01*
X184378571Y-117780810D01*
X184454761Y-117818905D01*
X184607142Y-117818905D01*
X183959523Y-117095096D02*
X183921428Y-117057001D01*
X183845238Y-117018905D01*
X183654761Y-117018905D01*
X183578571Y-117057001D01*
X183540476Y-117095096D01*
X183502380Y-117171286D01*
X183502380Y-117247477D01*
X183540476Y-117361762D01*
X183997619Y-117818905D01*
X183502380Y-117818905D01*
%TO.C,C11*%
X125990285Y-97567714D02*
X126028380Y-97605809D01*
X126142666Y-97643904D01*
X126218857Y-97643904D01*
X126333142Y-97605809D01*
X126409333Y-97529619D01*
X126447428Y-97453428D01*
X126485523Y-97301047D01*
X126485523Y-97186761D01*
X126447428Y-97034380D01*
X126409333Y-96958190D01*
X126333142Y-96882000D01*
X126218857Y-96843904D01*
X126142666Y-96843904D01*
X126028380Y-96882000D01*
X125990285Y-96920095D01*
X125228380Y-97643904D02*
X125685523Y-97643904D01*
X125456952Y-97643904D02*
X125456952Y-96843904D01*
X125533142Y-96958190D01*
X125609333Y-97034380D01*
X125685523Y-97072476D01*
X124466476Y-97643904D02*
X124923619Y-97643904D01*
X124695047Y-97643904D02*
X124695047Y-96843904D01*
X124771238Y-96958190D01*
X124847428Y-97034380D01*
X124923619Y-97072476D01*
%TO.C,R9*%
X168281333Y-115661905D02*
X168548000Y-115280953D01*
X168738476Y-115661905D02*
X168738476Y-114861905D01*
X168433714Y-114861905D01*
X168357523Y-114900001D01*
X168319428Y-114938096D01*
X168281333Y-115014286D01*
X168281333Y-115128572D01*
X168319428Y-115204762D01*
X168357523Y-115242858D01*
X168433714Y-115280953D01*
X168738476Y-115280953D01*
X167900380Y-115661905D02*
X167748000Y-115661905D01*
X167671809Y-115623810D01*
X167633714Y-115585715D01*
X167557523Y-115471429D01*
X167519428Y-115319048D01*
X167519428Y-115014286D01*
X167557523Y-114938096D01*
X167595619Y-114900001D01*
X167671809Y-114861905D01*
X167824190Y-114861905D01*
X167900380Y-114900001D01*
X167938476Y-114938096D01*
X167976571Y-115014286D01*
X167976571Y-115204762D01*
X167938476Y-115280953D01*
X167900380Y-115319048D01*
X167824190Y-115357143D01*
X167671809Y-115357143D01*
X167595619Y-115319048D01*
X167557523Y-115280953D01*
X167519428Y-115204762D01*
%TO.C,R11*%
X155962285Y-115677904D02*
X156228952Y-115296952D01*
X156419428Y-115677904D02*
X156419428Y-114877904D01*
X156114666Y-114877904D01*
X156038476Y-114916000D01*
X156000380Y-114954095D01*
X155962285Y-115030285D01*
X155962285Y-115144571D01*
X156000380Y-115220761D01*
X156038476Y-115258857D01*
X156114666Y-115296952D01*
X156419428Y-115296952D01*
X155200380Y-115677904D02*
X155657523Y-115677904D01*
X155428952Y-115677904D02*
X155428952Y-114877904D01*
X155505142Y-114992190D01*
X155581333Y-115068380D01*
X155657523Y-115106476D01*
X154438476Y-115677904D02*
X154895619Y-115677904D01*
X154667047Y-115677904D02*
X154667047Y-114877904D01*
X154743238Y-114992190D01*
X154819428Y-115068380D01*
X154895619Y-115106476D01*
%TO.C,C15*%
X115830285Y-102088714D02*
X115868380Y-102126809D01*
X115982666Y-102164904D01*
X116058857Y-102164904D01*
X116173142Y-102126809D01*
X116249333Y-102050619D01*
X116287428Y-101974428D01*
X116325523Y-101822047D01*
X116325523Y-101707761D01*
X116287428Y-101555380D01*
X116249333Y-101479190D01*
X116173142Y-101403000D01*
X116058857Y-101364904D01*
X115982666Y-101364904D01*
X115868380Y-101403000D01*
X115830285Y-101441095D01*
X115068380Y-102164904D02*
X115525523Y-102164904D01*
X115296952Y-102164904D02*
X115296952Y-101364904D01*
X115373142Y-101479190D01*
X115449333Y-101555380D01*
X115525523Y-101593476D01*
X114344571Y-101364904D02*
X114725523Y-101364904D01*
X114763619Y-101745857D01*
X114725523Y-101707761D01*
X114649333Y-101669666D01*
X114458857Y-101669666D01*
X114382666Y-101707761D01*
X114344571Y-101745857D01*
X114306476Y-101822047D01*
X114306476Y-102012523D01*
X114344571Y-102088714D01*
X114382666Y-102126809D01*
X114458857Y-102164904D01*
X114649333Y-102164904D01*
X114725523Y-102126809D01*
X114763619Y-102088714D01*
%TO.C,C6*%
X172207785Y-100980715D02*
X172245880Y-101018810D01*
X172360166Y-101056905D01*
X172436357Y-101056905D01*
X172550642Y-101018810D01*
X172626833Y-100942620D01*
X172664928Y-100866429D01*
X172703023Y-100714048D01*
X172703023Y-100599762D01*
X172664928Y-100447381D01*
X172626833Y-100371191D01*
X172550642Y-100295001D01*
X172436357Y-100256905D01*
X172360166Y-100256905D01*
X172245880Y-100295001D01*
X172207785Y-100333096D01*
X171522071Y-100256905D02*
X171674452Y-100256905D01*
X171750642Y-100295001D01*
X171788738Y-100333096D01*
X171864928Y-100447381D01*
X171903023Y-100599762D01*
X171903023Y-100904524D01*
X171864928Y-100980715D01*
X171826833Y-101018810D01*
X171750642Y-101056905D01*
X171598261Y-101056905D01*
X171522071Y-101018810D01*
X171483976Y-100980715D01*
X171445880Y-100904524D01*
X171445880Y-100714048D01*
X171483976Y-100637858D01*
X171522071Y-100599762D01*
X171598261Y-100561667D01*
X171750642Y-100561667D01*
X171826833Y-100599762D01*
X171864928Y-100637858D01*
X171903023Y-100714048D01*
D11*
%TO.C,R16*%
X118949449Y-104234999D02*
X118764551Y-104234999D01*
X118764551Y-103181001D02*
X118949449Y-103181001D01*
%TO.C,R13*%
X152164999Y-110651551D02*
X152164999Y-110836449D01*
X151111001Y-110836449D02*
X151111001Y-110651551D01*
%TO.C,R10*%
X156191001Y-110836449D02*
X156191001Y-110651551D01*
X157244999Y-110651551D02*
X157244999Y-110836449D01*
%TO.C,C14*%
X118450150Y-100647500D02*
X117769850Y-100647500D01*
X117769850Y-99504500D02*
X118450150Y-99504500D01*
%TO.C,D6*%
X126984500Y-87830700D02*
X126984500Y-86281300D01*
X128127500Y-86281300D02*
X128127500Y-87830700D01*
%TO.C,R4*%
X180251049Y-93617552D02*
X180251049Y-93802450D01*
X179197051Y-93802450D02*
X179197051Y-93617552D01*
%TO.C,C7*%
X168333100Y-95694500D02*
X169013400Y-95694500D01*
X169013400Y-96837500D02*
X168333100Y-96837500D01*
%TO.C,TP3*%
X122874000Y-101030000D02*
X122874000Y-99630000D01*
X121474000Y-101030000D02*
X122874000Y-101030000D01*
X122874000Y-99630000D02*
X121474000Y-99630000D01*
X121474000Y-99630000D02*
X121474000Y-101030000D01*
%TO.C,Q1*%
X184150000Y-112419201D02*
X183500000Y-112419201D01*
X184150000Y-115539201D02*
X184800000Y-115539201D01*
X184150000Y-112419201D02*
X185825000Y-112419201D01*
X184150000Y-115539201D02*
X183500000Y-115539201D01*
%TO.C,Q4*%
X179324000Y-121417001D02*
X179974000Y-121417001D01*
X179324000Y-118297001D02*
X178674000Y-118297001D01*
X179324000Y-121417001D02*
X178674000Y-121417001D01*
X179324000Y-118297001D02*
X180999000Y-118297001D01*
D12*
%TO.C,R14*%
X121034600Y-87009000D02*
X121034600Y-86849000D01*
X121834600Y-87009000D02*
X121834600Y-86849000D01*
D11*
%TO.C,R1*%
X190915551Y-109058002D02*
X191100449Y-109058002D01*
X191100449Y-110112000D02*
X190915551Y-110112000D01*
%TO.C,Q7*%
X137528000Y-109946000D02*
X138178000Y-109946000D01*
X137528000Y-109946000D02*
X136878000Y-109946000D01*
X137528000Y-113066000D02*
X138178000Y-113066000D01*
X137528000Y-113066000D02*
X135853000Y-113066000D01*
D12*
%TO.C,U3*%
X122200800Y-94718000D02*
X119200800Y-94718000D01*
X122200800Y-91718000D02*
X119200800Y-91718000D01*
D13*
X122500800Y-91718000D02*
G75*
G03*
X122500800Y-91718000I-50000J0D01*
G01*
D11*
%TO.C,R8*%
X170357350Y-113249002D02*
X170542248Y-113249002D01*
X170542248Y-114303000D02*
X170357350Y-114303000D01*
%TO.C,C9*%
X159008000Y-115737850D02*
X159008000Y-116418150D01*
X157865000Y-116418150D02*
X157865000Y-115737850D01*
%TO.C,Q5*%
X174498000Y-112419201D02*
X176173000Y-112419201D01*
X174498000Y-112419201D02*
X173848000Y-112419201D01*
X174498000Y-115539201D02*
X173848000Y-115539201D01*
X174498000Y-115539201D02*
X175148000Y-115539201D01*
%TO.C,Q6*%
X174498000Y-118297001D02*
X173848000Y-118297001D01*
X174498000Y-121417001D02*
X173848000Y-121417001D01*
X174498000Y-118297001D02*
X176173000Y-118297001D01*
X174498000Y-121417001D02*
X175148000Y-121417001D01*
D12*
%TO.C,R15*%
X120361400Y-87009000D02*
X120361400Y-86849000D01*
X119561400Y-87009000D02*
X119561400Y-86849000D01*
D11*
%TO.C,R3*%
X190915551Y-112106002D02*
X191100449Y-112106002D01*
X191100449Y-113160000D02*
X190915551Y-113160000D01*
%TO.C,R12*%
X153688999Y-113191551D02*
X153688999Y-113376449D01*
X152635001Y-113376449D02*
X152635001Y-113191551D01*
%TO.C,D7*%
X124698500Y-87830700D02*
X124698500Y-86281300D01*
X125841500Y-86281300D02*
X125841500Y-87830700D01*
%TO.C,C3*%
X186349850Y-106675501D02*
X187030150Y-106675501D01*
X187030150Y-107818501D02*
X186349850Y-107818501D01*
%TO.C,R2*%
X190915551Y-110582002D02*
X191100449Y-110582002D01*
X191100449Y-111636000D02*
X190915551Y-111636000D01*
%TO.C,D5*%
X174180500Y-89585800D02*
X174180500Y-88036400D01*
X175323500Y-88036400D02*
X175323500Y-89585800D01*
%TO.C,TP1*%
X132780000Y-109790000D02*
X131380000Y-109790000D01*
X132780000Y-111190000D02*
X132780000Y-109790000D01*
X131380000Y-111190000D02*
X132780000Y-111190000D01*
X131380000Y-109790000D02*
X131380000Y-111190000D01*
%TO.C,Q3*%
X179324000Y-115539201D02*
X178674000Y-115539201D01*
X179324000Y-112419201D02*
X180999000Y-112419201D01*
X179324000Y-115539201D02*
X179974000Y-115539201D01*
X179324000Y-112419201D02*
X178674000Y-112419201D01*
%TO.C,F1*%
X176771300Y-88550703D02*
X176771300Y-87191897D01*
X178828700Y-87191897D02*
X178828700Y-88550703D01*
%TO.C,D8*%
X115554500Y-87830700D02*
X115554500Y-86281300D01*
X116697500Y-86281300D02*
X116697500Y-87830700D01*
D12*
%TO.C,J8*%
X159508000Y-122682000D02*
X148848000Y-122682000D01*
X159508000Y-120142000D02*
X159508000Y-122682000D01*
X148848000Y-122682000D02*
X148848000Y-120142000D01*
X148848000Y-120142000D02*
X159508000Y-120142000D01*
D14*
X160278000Y-121412000D02*
G75*
G03*
X160278000Y-121412000I-100000J0D01*
G01*
D11*
%TO.C,C4*%
X187023800Y-101214501D02*
X186343500Y-101214501D01*
X186343500Y-100071501D02*
X187023800Y-100071501D01*
%TO.C,TP2*%
X129224000Y-109790000D02*
X127824000Y-109790000D01*
X127824000Y-109790000D02*
X127824000Y-111190000D01*
X127824000Y-111190000D02*
X129224000Y-111190000D01*
X129224000Y-111190000D02*
X129224000Y-109790000D01*
D12*
%TO.C,LS1*%
X120603750Y-109665000D02*
X117603750Y-109665000D01*
X125353750Y-109665000D02*
X125353750Y-110665000D01*
X123353750Y-112415000D02*
X123353750Y-115415000D01*
X124603750Y-117665000D02*
X125603750Y-117665000D01*
X114853750Y-112415000D02*
X114853750Y-115415000D01*
X120603750Y-118165000D02*
X117603750Y-118165000D01*
X124853750Y-110165000D02*
X125853750Y-110165000D01*
D11*
%TO.C,L1*%
X173818550Y-107666101D02*
X173818550Y-99207901D01*
X173818550Y-99207901D02*
X182276750Y-99207901D01*
X182276750Y-99207901D02*
X182276750Y-107666101D01*
X182276750Y-107666101D02*
X173818550Y-107666101D01*
X182581550Y-103437001D02*
G75*
G03*
X182581550Y-103437001I-76200J0D01*
G01*
%TO.C,U2*%
X185705750Y-101760601D02*
X187661550Y-101760601D01*
X187661550Y-105113401D02*
X185705750Y-105113401D01*
%TO.C,R7*%
X170542248Y-112779000D02*
X170357350Y-112779000D01*
X170357350Y-111725002D02*
X170542248Y-111725002D01*
%TO.C,R5*%
X177673051Y-93802450D02*
X177673051Y-93617552D01*
X178727049Y-93617552D02*
X178727049Y-93802450D01*
D12*
%TO.C,U1*%
X147628000Y-107926000D02*
X145178000Y-107926000D01*
X145178000Y-107926000D02*
X145178000Y-107276000D01*
X163178000Y-107926000D02*
X160728000Y-107926000D01*
X163178000Y-107276000D02*
X163178000Y-107926000D01*
D14*
X164478000Y-89916000D02*
G75*
G03*
X164478000Y-89916000I-100000J0D01*
G01*
D11*
%TO.C,R6*%
X177203049Y-93617552D02*
X177203049Y-93802450D01*
X176149051Y-93802450D02*
X176149051Y-93617552D01*
%TO.C,Q2*%
X184150000Y-118297001D02*
X183500000Y-118297001D01*
X184150000Y-121417001D02*
X183500000Y-121417001D01*
X184150000Y-118297001D02*
X185825000Y-118297001D01*
X184150000Y-121417001D02*
X184800000Y-121417001D01*
%TO.C,C11*%
X124904500Y-95336150D02*
X124904500Y-94655850D01*
X126047500Y-94655850D02*
X126047500Y-95336150D01*
%TO.C,R9*%
X170357350Y-114773002D02*
X170542248Y-114773002D01*
X170542248Y-115827000D02*
X170357350Y-115827000D01*
%TO.C,R11*%
X154667001Y-113376449D02*
X154667001Y-113191551D01*
X155720999Y-113191551D02*
X155720999Y-113376449D01*
%TD*%
%LPC*%
%TO.C,LS1*%
G36*
X123953750Y-116826520D02*
G01*
X123953750Y-118765000D01*
X122015270Y-118765000D01*
X120913190Y-117762920D01*
X122951670Y-115724440D01*
X123953750Y-116826520D01*
G37*
D15*
X123953750Y-116826520D02*
X123953750Y-118765000D01*
X122015270Y-118765000D01*
X120913190Y-117762920D01*
X122951670Y-115724440D01*
X123953750Y-116826520D01*
G36*
X123953750Y-111103480D02*
G01*
X122951670Y-112055560D01*
X121013190Y-110117080D01*
X121915270Y-109065000D01*
X123953750Y-109065000D01*
X123953750Y-111103480D01*
G37*
X123953750Y-111103480D02*
X122951670Y-112055560D01*
X121013190Y-110117080D01*
X121915270Y-109065000D01*
X123953750Y-109065000D01*
X123953750Y-111103480D01*
G36*
X117344310Y-110117080D02*
G01*
X115305830Y-112155560D01*
X113903750Y-110703480D01*
X115942230Y-108665000D01*
X117344310Y-110117080D01*
G37*
X117344310Y-110117080D02*
X115305830Y-112155560D01*
X113903750Y-110703480D01*
X115942230Y-108665000D01*
X117344310Y-110117080D01*
G36*
X117244310Y-117662920D02*
G01*
X116292230Y-118765000D01*
X114253750Y-118765000D01*
X114253750Y-116726520D01*
X115305830Y-115724440D01*
X117244310Y-117662920D01*
G37*
X117244310Y-117662920D02*
X116292230Y-118765000D01*
X114253750Y-118765000D01*
X114253750Y-116726520D01*
X115305830Y-115724440D01*
X117244310Y-117662920D01*
%TD*%
D16*
%TO.C,REF\u002A\u002A*%
X199898000Y-121666000D03*
%TD*%
%TO.C,REF\u002A\u002A*%
X199898000Y-81026000D03*
%TD*%
%TO.C,REF\u002A\u002A*%
X108458000Y-81026000D03*
%TD*%
%TO.C,REF\u002A\u002A*%
X108458000Y-121666000D03*
%TD*%
D17*
%TO.C,J6*%
X188214000Y-90836000D03*
D18*
X188214000Y-84836000D03*
%TD*%
D19*
%TO.C,Je1*%
X123896000Y-79017500D03*
D20*
X122896000Y-81717500D03*
X117896000Y-81717500D03*
D19*
X116896000Y-79017500D03*
%TD*%
D21*
%TO.C,J3*%
X129540000Y-100838000D03*
X129540000Y-98298000D03*
X129540000Y-95758000D03*
%TD*%
D22*
%TO.C,J2*%
X112522000Y-100808000D03*
D23*
X112522000Y-98268000D03*
X112522000Y-95728000D03*
%TD*%
D22*
%TO.C,J1*%
X107950000Y-100808000D03*
D23*
X107950000Y-98268000D03*
X107950000Y-95728000D03*
%TD*%
D22*
%TO.C,J5*%
X137922000Y-100823000D03*
D23*
X137922000Y-98283000D03*
X137922000Y-95743000D03*
%TD*%
D24*
%TO.C,OPT1*%
X198628000Y-96012000D03*
D25*
X198628000Y-91012000D03*
%TD*%
D22*
%TO.C,J4*%
X133858000Y-100823000D03*
D23*
X133858000Y-98283000D03*
X133858000Y-95743000D03*
%TD*%
D26*
%TO.C,R16*%
X118079201Y-103708000D03*
X119634799Y-103708000D03*
%TD*%
D27*
%TO.C,R13*%
X151638000Y-111521799D03*
X151638000Y-109966201D03*
%TD*%
%TO.C,R10*%
X156718000Y-111521799D03*
X156718000Y-109966201D03*
%TD*%
D28*
%TO.C,C14*%
X117182900Y-100076000D03*
X119037100Y-100076000D03*
%TD*%
D29*
%TO.C,D6*%
X127556000Y-86255900D03*
X127556000Y-87856100D03*
%TD*%
D27*
%TO.C,R4*%
X179724050Y-94487800D03*
X179724050Y-92932202D03*
%TD*%
D28*
%TO.C,C7*%
X169600350Y-96266000D03*
X167746150Y-96266000D03*
%TD*%
D30*
%TO.C,C10*%
X149860000Y-109985000D03*
X149860000Y-111503000D03*
%TD*%
D31*
%TO.C,TP3*%
X122174000Y-100330000D03*
%TD*%
D32*
%TO.C,Q1*%
X185087500Y-113029201D03*
X185087500Y-114929201D03*
X183212500Y-113979201D03*
%TD*%
D33*
%TO.C,C13*%
X119946800Y-89596000D03*
X118406800Y-89596000D03*
%TD*%
D32*
%TO.C,Q4*%
X180261500Y-118907001D03*
X180261500Y-120807001D03*
X178386500Y-119857001D03*
%TD*%
D34*
%TO.C,R14*%
X121434600Y-87654000D03*
X121434600Y-86204000D03*
%TD*%
D26*
%TO.C,R1*%
X190230201Y-109585001D03*
X191785799Y-109585001D03*
%TD*%
D35*
%TO.C,C5*%
X170434000Y-98865001D03*
X168916000Y-98865001D03*
%TD*%
D36*
%TO.C,Q7*%
X136590500Y-112456000D03*
X136590500Y-110556000D03*
X138465500Y-111506000D03*
%TD*%
D37*
%TO.C,U3*%
X122150800Y-92093000D03*
X122150800Y-92543000D03*
X122150800Y-92993000D03*
X122150800Y-93443000D03*
X122150800Y-93893000D03*
X122150800Y-94343000D03*
X119250800Y-94343000D03*
X119250800Y-93893000D03*
X119250800Y-93443000D03*
X119250800Y-92993000D03*
X119250800Y-92543000D03*
X119250800Y-92093000D03*
D38*
X120700800Y-93218000D03*
%TD*%
D26*
%TO.C,R8*%
X169672000Y-113776001D03*
X171227598Y-113776001D03*
%TD*%
D39*
%TO.C,C9*%
X158436500Y-117005100D03*
X158436500Y-115150900D03*
%TD*%
D32*
%TO.C,Q5*%
X175435500Y-113029201D03*
X175435500Y-114929201D03*
X173560500Y-113979201D03*
%TD*%
%TO.C,Q6*%
X175435500Y-118907001D03*
X175435500Y-120807001D03*
X173560500Y-119857001D03*
%TD*%
D34*
%TO.C,R15*%
X119961400Y-87654000D03*
X119961400Y-86204000D03*
%TD*%
D26*
%TO.C,R3*%
X190230201Y-112633001D03*
X191785799Y-112633001D03*
%TD*%
D27*
%TO.C,R12*%
X153162000Y-114061799D03*
X153162000Y-112506201D03*
%TD*%
D40*
%TO.C,L2*%
X114808000Y-91354000D03*
X114808000Y-89408000D03*
%TD*%
D41*
%TO.C,C16*%
X112776000Y-89961000D03*
X112776000Y-91531000D03*
%TD*%
D29*
%TO.C,D7*%
X125270000Y-86255900D03*
X125270000Y-87856100D03*
%TD*%
D28*
%TO.C,C3*%
X187617100Y-107247001D03*
X185762900Y-107247001D03*
%TD*%
D26*
%TO.C,R2*%
X190230201Y-111109001D03*
X191785799Y-111109001D03*
%TD*%
D29*
%TO.C,D5*%
X174752000Y-89611200D03*
X174752000Y-88011000D03*
%TD*%
D35*
%TO.C,C2*%
X186940650Y-98865001D03*
X188458650Y-98865001D03*
%TD*%
D31*
%TO.C,TP1*%
X132080000Y-110490000D03*
%TD*%
D32*
%TO.C,Q3*%
X180261500Y-113029201D03*
X180261500Y-114929201D03*
X178386500Y-113979201D03*
%TD*%
D42*
%TO.C,F1*%
X177800000Y-86372700D03*
X177800000Y-89369900D03*
%TD*%
D29*
%TO.C,D8*%
X116126000Y-86255900D03*
X116126000Y-87856100D03*
%TD*%
D21*
%TO.C,J8*%
X157988000Y-121412000D03*
X155448000Y-121412000D03*
X152908000Y-121412000D03*
X150368000Y-121412000D03*
%TD*%
D28*
%TO.C,C4*%
X185756550Y-100643001D03*
X187610750Y-100643001D03*
%TD*%
D31*
%TO.C,TP2*%
X128524000Y-110490000D03*
%TD*%
D35*
%TO.C,C1*%
X186940650Y-97087001D03*
X188458650Y-97087001D03*
%TD*%
D33*
%TO.C,C12*%
X121448000Y-89596000D03*
X122988000Y-89596000D03*
%TD*%
D43*
%TO.C,L1*%
X180848000Y-103437001D03*
X175247300Y-103437001D03*
%TD*%
D30*
%TO.C,C8*%
X158496000Y-109985000D03*
X158496000Y-111503000D03*
%TD*%
D44*
%TO.C,U2*%
X185331100Y-104387002D03*
X185331100Y-103437001D03*
X185331100Y-102487000D03*
X188036200Y-102487000D03*
X188036200Y-103437001D03*
X188036200Y-104387002D03*
%TD*%
D26*
%TO.C,R7*%
X169672000Y-112252001D03*
X171227598Y-112252001D03*
%TD*%
D27*
%TO.C,R5*%
X178200050Y-92932202D03*
X178200050Y-94487800D03*
%TD*%
D45*
%TO.C,U1*%
X162928000Y-89916000D03*
X162928000Y-91186000D03*
X162928000Y-92456000D03*
X162928000Y-93726000D03*
X162928000Y-94996000D03*
X162928000Y-96266000D03*
X162928000Y-97536000D03*
X162928000Y-98806000D03*
X162928000Y-100076000D03*
X162928000Y-101346000D03*
X162928000Y-102616000D03*
X162928000Y-103886000D03*
X162928000Y-105156000D03*
X162928000Y-106426000D03*
D46*
X159893000Y-107676000D03*
X158623000Y-107676000D03*
X157353000Y-107676000D03*
X156083000Y-107676000D03*
X154813000Y-107676000D03*
X153543000Y-107676000D03*
X152273000Y-107676000D03*
X151003000Y-107676000D03*
X149733000Y-107676000D03*
X148463000Y-107676000D03*
D45*
X145428000Y-106426000D03*
X145428000Y-105156000D03*
X145428000Y-103886000D03*
X145428000Y-102616000D03*
X145428000Y-101346000D03*
X145428000Y-100076000D03*
X145428000Y-98806000D03*
X145428000Y-97536000D03*
X145428000Y-96266000D03*
X145428000Y-94996000D03*
X145428000Y-93726000D03*
X145428000Y-92456000D03*
X145428000Y-91186000D03*
X145428000Y-89916000D03*
D47*
X157078000Y-96236000D03*
X155678000Y-96236000D03*
X154278000Y-96236000D03*
X157078000Y-97636000D03*
X155678000Y-97636000D03*
X154278000Y-97636000D03*
X157078000Y-99036000D03*
X155678000Y-99036000D03*
X154278000Y-99036000D03*
%TD*%
D27*
%TO.C,R6*%
X176676050Y-94487800D03*
X176676050Y-92932202D03*
%TD*%
D32*
%TO.C,Q2*%
X185087500Y-118907001D03*
X185087500Y-120807001D03*
X183212500Y-119857001D03*
%TD*%
D39*
%TO.C,C11*%
X125476000Y-94068900D03*
X125476000Y-95923100D03*
%TD*%
D26*
%TO.C,R9*%
X169672000Y-115300001D03*
X171227598Y-115300001D03*
%TD*%
D27*
%TO.C,R11*%
X155194000Y-114061799D03*
X155194000Y-112506201D03*
%TD*%
D48*
%TO.C,C15*%
X117340000Y-101795000D03*
X118850000Y-101795000D03*
%TD*%
D35*
%TO.C,C6*%
X170434000Y-100643001D03*
X168916000Y-100643001D03*
%TD*%
M02*
