G04 #@! TF.GenerationSoftware,KiCad,Pcbnew,(6.0.7)*
G04 #@! TF.CreationDate,2023-03-18T00:07:20-06:00*
G04 #@! TF.ProjectId,Base Station,42617365-2053-4746-9174-696f6e2e6b69,1.2*
G04 #@! TF.SameCoordinates,Original*
G04 #@! TF.FileFunction,Soldermask,Top*
G04 #@! TF.FilePolarity,Negative*
%FSLAX46Y46*%
G04 Gerber Fmt 4.6, Leading zero omitted, Abs format (unit mm)*
G04 Created by KiCad (PCBNEW (6.0.7)) date 2023-03-18 00:07:20*
%MOMM*%
%LPD*%
G01*
G04 APERTURE LIST*
%ADD10C,0.000100*%
%ADD11C,7.000000*%
%ADD12R,0.495300X0.812800*%
%ADD13R,0.863600X0.812800*%
%ADD14R,1.193800X0.711200*%
%ADD15R,1.600000X1.550000*%
%ADD16O,5.000000X2.500000*%
%ADD17O,4.500000X2.250000*%
%ADD18R,0.400000X1.350000*%
%ADD19O,0.775000X1.550000*%
%ADD20O,1.300000X0.650000*%
%ADD21R,1.500000X1.550000*%
%ADD22R,1.605000X1.605000*%
%ADD23R,1.700000X1.700000*%
%ADD24O,1.700000X1.700000*%
%ADD25R,1.950000X1.950000*%
%ADD26C,1.950000*%
G04 APERTURE END LIST*
G36*
X118196000Y-79892500D02*
G01*
X116796000Y-79892500D01*
X116770000Y-79891500D01*
X116744000Y-79889500D01*
X116718000Y-79886500D01*
X116692000Y-79881500D01*
X116667000Y-79875500D01*
X116641000Y-79868500D01*
X116617000Y-79859500D01*
X116593000Y-79849500D01*
X116569000Y-79838500D01*
X116546000Y-79825500D01*
X116502000Y-79797500D01*
X116481000Y-79781500D01*
X116461000Y-79764500D01*
X116442000Y-79746500D01*
X116424000Y-79727500D01*
X116407000Y-79707500D01*
X116391000Y-79686500D01*
X116363000Y-79642500D01*
X116350000Y-79619500D01*
X116339000Y-79595500D01*
X116329000Y-79571500D01*
X116320000Y-79547500D01*
X116313000Y-79521500D01*
X116307000Y-79496500D01*
X116302000Y-79470500D01*
X116299000Y-79444500D01*
X116297000Y-79418500D01*
X116296000Y-79392500D01*
X116296000Y-78642500D01*
X116297000Y-78616500D01*
X116299000Y-78590500D01*
X116302000Y-78564500D01*
X116307000Y-78538500D01*
X116313000Y-78513500D01*
X116320000Y-78487500D01*
X116329000Y-78463500D01*
X116339000Y-78439500D01*
X116350000Y-78415500D01*
X116363000Y-78392500D01*
X116391000Y-78348500D01*
X116407000Y-78327500D01*
X116424000Y-78307500D01*
X116442000Y-78288500D01*
X116461000Y-78270500D01*
X116481000Y-78253500D01*
X116502000Y-78237500D01*
X116546000Y-78209500D01*
X116569000Y-78196500D01*
X116593000Y-78185500D01*
X116617000Y-78175500D01*
X116641000Y-78166500D01*
X116667000Y-78159500D01*
X116692000Y-78153500D01*
X116718000Y-78148500D01*
X116744000Y-78145500D01*
X116770000Y-78143500D01*
X116796000Y-78142500D01*
X118196000Y-78142500D01*
X118196000Y-79892500D01*
G37*
D10*
X118196000Y-79892500D02*
X116796000Y-79892500D01*
X116770000Y-79891500D01*
X116744000Y-79889500D01*
X116718000Y-79886500D01*
X116692000Y-79881500D01*
X116667000Y-79875500D01*
X116641000Y-79868500D01*
X116617000Y-79859500D01*
X116593000Y-79849500D01*
X116569000Y-79838500D01*
X116546000Y-79825500D01*
X116502000Y-79797500D01*
X116481000Y-79781500D01*
X116461000Y-79764500D01*
X116442000Y-79746500D01*
X116424000Y-79727500D01*
X116407000Y-79707500D01*
X116391000Y-79686500D01*
X116363000Y-79642500D01*
X116350000Y-79619500D01*
X116339000Y-79595500D01*
X116329000Y-79571500D01*
X116320000Y-79547500D01*
X116313000Y-79521500D01*
X116307000Y-79496500D01*
X116302000Y-79470500D01*
X116299000Y-79444500D01*
X116297000Y-79418500D01*
X116296000Y-79392500D01*
X116296000Y-78642500D01*
X116297000Y-78616500D01*
X116299000Y-78590500D01*
X116302000Y-78564500D01*
X116307000Y-78538500D01*
X116313000Y-78513500D01*
X116320000Y-78487500D01*
X116329000Y-78463500D01*
X116339000Y-78439500D01*
X116350000Y-78415500D01*
X116363000Y-78392500D01*
X116391000Y-78348500D01*
X116407000Y-78327500D01*
X116424000Y-78307500D01*
X116442000Y-78288500D01*
X116461000Y-78270500D01*
X116481000Y-78253500D01*
X116502000Y-78237500D01*
X116546000Y-78209500D01*
X116569000Y-78196500D01*
X116593000Y-78185500D01*
X116617000Y-78175500D01*
X116641000Y-78166500D01*
X116667000Y-78159500D01*
X116692000Y-78153500D01*
X116718000Y-78148500D01*
X116744000Y-78145500D01*
X116770000Y-78143500D01*
X116796000Y-78142500D01*
X118196000Y-78142500D01*
X118196000Y-79892500D01*
G36*
X124022000Y-78143500D02*
G01*
X124048000Y-78145500D01*
X124074000Y-78148500D01*
X124100000Y-78153500D01*
X124125000Y-78159500D01*
X124151000Y-78166500D01*
X124175000Y-78175500D01*
X124199000Y-78185500D01*
X124223000Y-78196500D01*
X124246000Y-78209500D01*
X124290000Y-78237500D01*
X124311000Y-78253500D01*
X124331000Y-78270500D01*
X124350000Y-78288500D01*
X124368000Y-78307500D01*
X124385000Y-78327500D01*
X124401000Y-78348500D01*
X124429000Y-78392500D01*
X124442000Y-78415500D01*
X124453000Y-78439500D01*
X124463000Y-78463500D01*
X124472000Y-78487500D01*
X124479000Y-78513500D01*
X124485000Y-78538500D01*
X124490000Y-78564500D01*
X124493000Y-78590500D01*
X124495000Y-78616500D01*
X124496000Y-78642500D01*
X124496000Y-79392500D01*
X124495000Y-79418500D01*
X124493000Y-79444500D01*
X124490000Y-79470500D01*
X124485000Y-79496500D01*
X124479000Y-79521500D01*
X124472000Y-79547500D01*
X124463000Y-79571500D01*
X124453000Y-79595500D01*
X124442000Y-79619500D01*
X124429000Y-79642500D01*
X124401000Y-79686500D01*
X124385000Y-79707500D01*
X124368000Y-79727500D01*
X124350000Y-79746500D01*
X124331000Y-79764500D01*
X124311000Y-79781500D01*
X124290000Y-79797500D01*
X124246000Y-79825500D01*
X124223000Y-79838500D01*
X124199000Y-79849500D01*
X124175000Y-79859500D01*
X124151000Y-79868500D01*
X124125000Y-79875500D01*
X124100000Y-79881500D01*
X124074000Y-79886500D01*
X124048000Y-79889500D01*
X124022000Y-79891500D01*
X123996000Y-79892500D01*
X122596000Y-79892500D01*
X122596000Y-78142500D01*
X123996000Y-78142500D01*
X124022000Y-78143500D01*
G37*
X124022000Y-78143500D02*
X124048000Y-78145500D01*
X124074000Y-78148500D01*
X124100000Y-78153500D01*
X124125000Y-78159500D01*
X124151000Y-78166500D01*
X124175000Y-78175500D01*
X124199000Y-78185500D01*
X124223000Y-78196500D01*
X124246000Y-78209500D01*
X124290000Y-78237500D01*
X124311000Y-78253500D01*
X124331000Y-78270500D01*
X124350000Y-78288500D01*
X124368000Y-78307500D01*
X124385000Y-78327500D01*
X124401000Y-78348500D01*
X124429000Y-78392500D01*
X124442000Y-78415500D01*
X124453000Y-78439500D01*
X124463000Y-78463500D01*
X124472000Y-78487500D01*
X124479000Y-78513500D01*
X124485000Y-78538500D01*
X124490000Y-78564500D01*
X124493000Y-78590500D01*
X124495000Y-78616500D01*
X124496000Y-78642500D01*
X124496000Y-79392500D01*
X124495000Y-79418500D01*
X124493000Y-79444500D01*
X124490000Y-79470500D01*
X124485000Y-79496500D01*
X124479000Y-79521500D01*
X124472000Y-79547500D01*
X124463000Y-79571500D01*
X124453000Y-79595500D01*
X124442000Y-79619500D01*
X124429000Y-79642500D01*
X124401000Y-79686500D01*
X124385000Y-79707500D01*
X124368000Y-79727500D01*
X124350000Y-79746500D01*
X124331000Y-79764500D01*
X124311000Y-79781500D01*
X124290000Y-79797500D01*
X124246000Y-79825500D01*
X124223000Y-79838500D01*
X124199000Y-79849500D01*
X124175000Y-79859500D01*
X124151000Y-79868500D01*
X124125000Y-79875500D01*
X124100000Y-79881500D01*
X124074000Y-79886500D01*
X124048000Y-79889500D01*
X124022000Y-79891500D01*
X123996000Y-79892500D01*
X122596000Y-79892500D01*
X122596000Y-78142500D01*
X123996000Y-78142500D01*
X124022000Y-78143500D01*
D11*
X108458000Y-121666000D03*
D12*
X125571250Y-120396000D03*
X124364750Y-120396000D03*
D13*
X125742700Y-106680000D03*
X124193300Y-106680000D03*
D14*
X192480100Y-103092002D03*
X192480100Y-102092001D03*
X192480100Y-101092000D03*
X189355900Y-101092000D03*
X189355900Y-102092001D03*
X189355900Y-103092002D03*
D15*
X144740000Y-105039000D03*
X144740000Y-118989000D03*
X139740000Y-105039000D03*
X139740000Y-118989000D03*
D16*
X188214000Y-90836000D03*
D17*
X188214000Y-84836000D03*
D11*
X108458000Y-81026000D03*
D15*
X168616000Y-105039000D03*
X168616000Y-118989000D03*
X163616000Y-105039000D03*
X163616000Y-118989000D03*
D11*
X199898000Y-121666000D03*
D18*
X121696000Y-81717500D03*
X121046000Y-81717500D03*
X120396000Y-81717500D03*
X119746000Y-81717500D03*
X119096000Y-81717500D03*
D19*
X123896000Y-79017500D03*
D20*
X122896000Y-81717500D03*
X117896000Y-81717500D03*
D19*
X116896000Y-79017500D03*
D21*
X119396000Y-79017500D03*
X121396000Y-79017500D03*
D22*
X129540000Y-100838000D03*
X129540000Y-98298000D03*
X129540000Y-95758000D03*
D23*
X112522000Y-100808000D03*
D24*
X112522000Y-98268000D03*
X112522000Y-95728000D03*
D14*
X179870100Y-103092002D03*
X179870100Y-102092001D03*
X179870100Y-101092000D03*
X176745900Y-101092000D03*
X176745900Y-102092001D03*
X176745900Y-103092002D03*
D23*
X107950000Y-100808000D03*
D24*
X107950000Y-98268000D03*
X107950000Y-95728000D03*
D11*
X199898000Y-81026000D03*
D23*
X137922000Y-100823000D03*
D24*
X137922000Y-98283000D03*
X137922000Y-95743000D03*
D25*
X198628000Y-96012000D03*
D26*
X198628000Y-91012000D03*
D23*
X133858000Y-100823000D03*
D24*
X133858000Y-98283000D03*
X133858000Y-95743000D03*
D22*
X157988000Y-121412000D03*
X155448000Y-121412000D03*
X152908000Y-121412000D03*
X150368000Y-121412000D03*
M02*
