G04 #@! TF.GenerationSoftware,KiCad,Pcbnew,(6.0.7)*
G04 #@! TF.CreationDate,2023-03-18T00:07:20-06:00*
G04 #@! TF.ProjectId,Base Station,42617365-2053-4746-9174-696f6e2e6b69,1.2*
G04 #@! TF.SameCoordinates,Original*
G04 #@! TF.FileFunction,Soldermask,Bot*
G04 #@! TF.FilePolarity,Negative*
%FSLAX46Y46*%
G04 Gerber Fmt 4.6, Leading zero omitted, Abs format (unit mm)*
G04 Created by KiCad (PCBNEW (6.0.7)) date 2023-03-18 00:07:20*
%MOMM*%
%LPD*%
G01*
G04 APERTURE LIST*
G04 Aperture macros list*
%AMRoundRect*
0 Rectangle with rounded corners*
0 $1 Rounding radius*
0 $2 $3 $4 $5 $6 $7 $8 $9 X,Y pos of 4 corners*
0 Add a 4 corners polygon primitive as box body*
4,1,4,$2,$3,$4,$5,$6,$7,$8,$9,$2,$3,0*
0 Add four circle primitives for the rounded corners*
1,1,$1+$1,$2,$3*
1,1,$1+$1,$4,$5*
1,1,$1+$1,$6,$7*
1,1,$1+$1,$8,$9*
0 Add four rect primitives between the rounded corners*
20,1,$1+$1,$2,$3,$4,$5,0*
20,1,$1+$1,$4,$5,$6,$7,0*
20,1,$1+$1,$6,$7,$8,$9,0*
20,1,$1+$1,$8,$9,$2,$3,0*%
G04 Aperture macros list end*
%ADD10C,0.010000*%
%ADD11R,0.900000X0.650000*%
%ADD12R,1.020000X1.000000*%
%ADD13R,1.000000X1.020000*%
%ADD14C,7.000000*%
%ADD15O,5.000000X2.500000*%
%ADD16O,4.500000X2.250000*%
%ADD17O,0.775000X1.550000*%
%ADD18O,1.300000X0.650000*%
%ADD19R,1.605000X1.605000*%
%ADD20R,1.700000X1.700000*%
%ADD21O,1.700000X1.700000*%
%ADD22R,1.950000X1.950000*%
%ADD23C,1.950000*%
%ADD24R,0.755599X0.799998*%
%ADD25R,0.799998X0.755599*%
%ADD26R,0.558800X0.889000*%
%ADD27R,0.355600X0.508000*%
%ADD28R,1.000000X1.000000*%
%ADD29RoundRect,0.150000X0.587500X0.150000X-0.587500X0.150000X-0.587500X-0.150000X0.587500X-0.150000X0*%
%ADD30R,0.890000X0.930000*%
%ADD31O,0.850000X0.250000*%
%ADD32R,1.650000X2.550000*%
%ADD33R,0.889000X0.558800*%
%ADD34R,1.470000X1.285000*%
%ADD35R,0.970000X0.900000*%
%ADD36R,1.905000X0.990600*%
%ADD37R,1.790700X7.493000*%
%ADD38R,1.003300X0.558800*%
%ADD39R,1.500000X0.900000*%
%ADD40R,0.900000X1.500000*%
%ADD41R,0.900000X0.900000*%
%ADD42R,0.960000X0.970000*%
G04 APERTURE END LIST*
G36*
X117344310Y-110117080D02*
G01*
X115305830Y-112155560D01*
X113903750Y-110703480D01*
X115942230Y-108665000D01*
X117344310Y-110117080D01*
G37*
D10*
X117344310Y-110117080D02*
X115305830Y-112155560D01*
X113903750Y-110703480D01*
X115942230Y-108665000D01*
X117344310Y-110117080D01*
G36*
X123953750Y-111103480D02*
G01*
X122951670Y-112055560D01*
X121013190Y-110117080D01*
X121915270Y-109065000D01*
X123953750Y-109065000D01*
X123953750Y-111103480D01*
G37*
X123953750Y-111103480D02*
X122951670Y-112055560D01*
X121013190Y-110117080D01*
X121915270Y-109065000D01*
X123953750Y-109065000D01*
X123953750Y-111103480D01*
G36*
X117244310Y-117662920D02*
G01*
X116292230Y-118765000D01*
X114253750Y-118765000D01*
X114253750Y-116726520D01*
X115305830Y-115724440D01*
X117244310Y-117662920D01*
G37*
X117244310Y-117662920D02*
X116292230Y-118765000D01*
X114253750Y-118765000D01*
X114253750Y-116726520D01*
X115305830Y-115724440D01*
X117244310Y-117662920D01*
G36*
X123953750Y-116826520D02*
G01*
X123953750Y-118765000D01*
X122015270Y-118765000D01*
X120913190Y-117762920D01*
X122951670Y-115724440D01*
X123953750Y-116826520D01*
G37*
X123953750Y-116826520D02*
X123953750Y-118765000D01*
X122015270Y-118765000D01*
X120913190Y-117762920D01*
X122951670Y-115724440D01*
X123953750Y-116826520D01*
D11*
X119961400Y-87654000D03*
X119961400Y-86204000D03*
X121434600Y-87654000D03*
X121434600Y-86204000D03*
D12*
X149860000Y-109985000D03*
X149860000Y-111503000D03*
X158496000Y-109985000D03*
X158496000Y-111503000D03*
D13*
X170434000Y-100643001D03*
X168916000Y-100643001D03*
X168916000Y-98865001D03*
X170434000Y-98865001D03*
X186940650Y-98865001D03*
X188458650Y-98865001D03*
X186940650Y-97087001D03*
X188458650Y-97087001D03*
D14*
X108458000Y-121666000D03*
D15*
X188214000Y-90836000D03*
D16*
X188214000Y-84836000D03*
D14*
X108458000Y-81026000D03*
X199898000Y-121666000D03*
D17*
X123896000Y-79017500D03*
D18*
X122896000Y-81717500D03*
X117896000Y-81717500D03*
D17*
X116896000Y-79017500D03*
D19*
X129540000Y-100838000D03*
X129540000Y-98298000D03*
X129540000Y-95758000D03*
D20*
X112522000Y-100808000D03*
D21*
X112522000Y-98268000D03*
X112522000Y-95728000D03*
D20*
X107950000Y-100808000D03*
D21*
X107950000Y-98268000D03*
X107950000Y-95728000D03*
D14*
X199898000Y-81026000D03*
D20*
X137922000Y-100823000D03*
D21*
X137922000Y-98283000D03*
X137922000Y-95743000D03*
D22*
X198628000Y-96012000D03*
D23*
X198628000Y-91012000D03*
D20*
X133858000Y-100823000D03*
D21*
X133858000Y-98283000D03*
X133858000Y-95743000D03*
D24*
X118079201Y-103708000D03*
X119634799Y-103708000D03*
D25*
X151638000Y-111521799D03*
X151638000Y-109966201D03*
X156718000Y-111521799D03*
X156718000Y-109966201D03*
D26*
X117182900Y-100076000D03*
X119037100Y-100076000D03*
D27*
X127556000Y-86255900D03*
X127556000Y-87856100D03*
D25*
X179724050Y-94487800D03*
X179724050Y-92932202D03*
D26*
X169600350Y-96266000D03*
X167746150Y-96266000D03*
D28*
X122174000Y-100330000D03*
D29*
X185087500Y-113029201D03*
X185087500Y-114929201D03*
X183212500Y-113979201D03*
D30*
X119946800Y-89596000D03*
X118406800Y-89596000D03*
D29*
X180261500Y-118907001D03*
X180261500Y-120807001D03*
X178386500Y-119857001D03*
D24*
X190230201Y-109585001D03*
X191785799Y-109585001D03*
X129301799Y-107442000D03*
X127746201Y-107442000D03*
D29*
X138605500Y-109540000D03*
X138605500Y-111440000D03*
X136730500Y-110490000D03*
D31*
X122150800Y-92093000D03*
X122150800Y-92543000D03*
X122150800Y-92993000D03*
X122150800Y-93443000D03*
X122150800Y-93893000D03*
X122150800Y-94343000D03*
X119250800Y-94343000D03*
X119250800Y-93893000D03*
X119250800Y-93443000D03*
X119250800Y-92993000D03*
X119250800Y-92543000D03*
X119250800Y-92093000D03*
D32*
X120700800Y-93218000D03*
D24*
X169672000Y-113776001D03*
X171227598Y-113776001D03*
D33*
X158436500Y-117005100D03*
X158436500Y-115150900D03*
D29*
X175435500Y-113029201D03*
X175435500Y-114929201D03*
X173560500Y-113979201D03*
X175435500Y-118907001D03*
X175435500Y-120807001D03*
X173560500Y-119857001D03*
D24*
X190230201Y-112633001D03*
X191785799Y-112633001D03*
D25*
X153162000Y-114061799D03*
X153162000Y-112506201D03*
D34*
X114808000Y-91354000D03*
X114808000Y-89408000D03*
D35*
X112776000Y-89961000D03*
X112776000Y-91531000D03*
D27*
X125270000Y-86255900D03*
X125270000Y-87856100D03*
D26*
X187617100Y-107247001D03*
X185762900Y-107247001D03*
D24*
X190230201Y-111109001D03*
X191785799Y-111109001D03*
D27*
X174752000Y-89611200D03*
X174752000Y-88011000D03*
D28*
X132080000Y-111252000D03*
D29*
X180261500Y-113029201D03*
X180261500Y-114929201D03*
X178386500Y-113979201D03*
D36*
X177800000Y-86372700D03*
X177800000Y-89369900D03*
D27*
X116126000Y-86255900D03*
X116126000Y-87856100D03*
D19*
X157988000Y-121412000D03*
X155448000Y-121412000D03*
X152908000Y-121412000D03*
X150368000Y-121412000D03*
D26*
X185756550Y-100643001D03*
X187610750Y-100643001D03*
D28*
X128524000Y-111252000D03*
D30*
X121448000Y-89596000D03*
X122988000Y-89596000D03*
D37*
X180848000Y-103437001D03*
X175247300Y-103437001D03*
D38*
X185331100Y-104387002D03*
X185331100Y-103437001D03*
X185331100Y-102487000D03*
X188036200Y-102487000D03*
X188036200Y-103437001D03*
X188036200Y-104387002D03*
D24*
X169672000Y-112252001D03*
X171227598Y-112252001D03*
D25*
X178200050Y-92932202D03*
X178200050Y-94487800D03*
D39*
X162928000Y-89916000D03*
X162928000Y-91186000D03*
X162928000Y-92456000D03*
X162928000Y-93726000D03*
X162928000Y-94996000D03*
X162928000Y-96266000D03*
X162928000Y-97536000D03*
X162928000Y-98806000D03*
X162928000Y-100076000D03*
X162928000Y-101346000D03*
X162928000Y-102616000D03*
X162928000Y-103886000D03*
X162928000Y-105156000D03*
X162928000Y-106426000D03*
D40*
X159893000Y-107676000D03*
X158623000Y-107676000D03*
X157353000Y-107676000D03*
X156083000Y-107676000D03*
X154813000Y-107676000D03*
X153543000Y-107676000D03*
X152273000Y-107676000D03*
X151003000Y-107676000D03*
X149733000Y-107676000D03*
X148463000Y-107676000D03*
D39*
X145428000Y-106426000D03*
X145428000Y-105156000D03*
X145428000Y-103886000D03*
X145428000Y-102616000D03*
X145428000Y-101346000D03*
X145428000Y-100076000D03*
X145428000Y-98806000D03*
X145428000Y-97536000D03*
X145428000Y-96266000D03*
X145428000Y-94996000D03*
X145428000Y-93726000D03*
X145428000Y-92456000D03*
X145428000Y-91186000D03*
X145428000Y-89916000D03*
D41*
X157078000Y-96236000D03*
X155678000Y-96236000D03*
X154278000Y-96236000D03*
X157078000Y-97636000D03*
X155678000Y-97636000D03*
X154278000Y-97636000D03*
X157078000Y-99036000D03*
X155678000Y-99036000D03*
X154278000Y-99036000D03*
D25*
X176676050Y-94487800D03*
X176676050Y-92932202D03*
D29*
X185087500Y-118907001D03*
X185087500Y-120807001D03*
X183212500Y-119857001D03*
D33*
X125476000Y-94068900D03*
X125476000Y-95923100D03*
D24*
X169672000Y-115300001D03*
X171227598Y-115300001D03*
D25*
X155194000Y-114061799D03*
X155194000Y-112506201D03*
D42*
X117340000Y-101795000D03*
X118850000Y-101795000D03*
M02*
